<svg width="37" height="36" viewBox="0 0 37 36" fill="none" xmlns="http://www.w3.org/2000/svg">
<circle cx="18.3496" cy="18" r="18" fill="#F4F9FF"/>
<path d="M25.4307 9H8.28226C7.9686 9 7.66779 9.1246 7.446 9.34639C7.22421 9.56818 7.09961 9.86899 7.09961 10.1826V13.7306C7.09961 14.0443 7.22421 14.3451 7.446 14.5669C7.66779 14.7886 7.9686 14.9132 8.28226 14.9132H25.4307C25.7443 14.9132 26.0452 14.7886 26.2669 14.5669C26.4887 14.3451 26.6133 14.0443 26.6133 13.7306V10.1826C26.6133 9.86899 26.4887 9.56818 26.2669 9.34639C26.0452 9.1246 25.7443 9 25.4307 9V9ZM10.6476 13.1393C10.4137 13.1393 10.185 13.0699 9.99051 12.94C9.79603 12.81 9.64444 12.6253 9.55493 12.4092C9.46542 12.1931 9.442 11.9553 9.48763 11.7259C9.53327 11.4965 9.6459 11.2858 9.8113 11.1204C9.9767 10.955 10.1874 10.8423 10.4168 10.7967C10.6462 10.7511 10.884 10.7745 11.1001 10.864C11.3162 10.9535 11.5009 11.1051 11.6309 11.2996C11.7608 11.4941 11.8302 11.7227 11.8302 11.9566C11.8302 12.2703 11.7056 12.5711 11.4838 12.7929C11.262 13.0147 10.9612 13.1393 10.6476 13.1393ZM14.7868 13.1393C14.5529 13.1393 14.3243 13.0699 14.1298 12.94C13.9353 12.81 13.7837 12.6253 13.6942 12.4092C13.6047 12.1931 13.5813 11.9553 13.6269 11.7259C13.6725 11.4965 13.7852 11.2858 13.9506 11.1204C14.116 10.955 14.3267 10.8423 14.5561 10.7967C14.7855 10.7511 15.0233 10.7745 15.2394 10.864C15.4555 10.9535 15.6402 11.1051 15.7702 11.2996C15.9001 11.4941 15.9695 11.7227 15.9695 11.9566C15.9695 12.2703 15.8449 12.5711 15.6231 12.7929C15.4013 13.0147 15.1005 13.1393 14.7868 13.1393ZM23.9524 12.6958H19.2218C19.0257 12.6958 18.8377 12.6179 18.6991 12.4793C18.5605 12.3407 18.4826 12.1527 18.4826 11.9566C18.4826 11.7606 18.5605 11.5726 18.6991 11.434C18.8377 11.2953 19.0257 11.2175 19.2218 11.2175H23.9524C24.1484 11.2175 24.3364 11.2953 24.475 11.434C24.6136 11.5726 24.6915 11.7606 24.6915 11.9566C24.6915 12.1527 24.6136 12.3407 24.475 12.4793C24.3364 12.6179 24.1484 12.6958 23.9524 12.6958ZM7.09961 17.8699V21.4178C7.09961 21.7315 7.22421 22.0323 7.446 22.2541C7.66779 22.4759 7.9686 22.6005 8.28226 22.6005H17.8085C17.7714 22.3122 17.7516 22.0219 17.7494 21.7312C17.7499 21.4047 17.7736 21.0787 17.8203 20.7555C17.8696 20.4687 17.9887 20.1984 18.1671 19.9684C18.3455 19.7384 18.5777 19.5559 18.8433 19.4369C18.7354 19.1655 18.6983 18.8711 18.7355 18.5815C18.7728 18.2918 18.8831 18.0164 19.0562 17.7812C19.3635 17.377 19.7167 17.0099 20.1088 16.6872H8.28226C7.9686 16.6872 7.66779 16.8118 7.446 17.0336C7.22421 17.2554 7.09961 17.5562 7.09961 17.8699V17.8699ZM14.7868 18.4612C15.0207 18.4612 15.2494 18.5306 15.4439 18.6605C15.6384 18.7905 15.7899 18.9752 15.8795 19.1913C15.969 19.4074 15.9924 19.6452 15.9468 19.8746C15.9011 20.104 15.7885 20.3147 15.6231 20.4801C15.4577 20.6455 15.247 20.7581 15.0176 20.8038C14.7881 20.8494 14.5504 20.826 14.3343 20.7365C14.1182 20.647 13.9334 20.4954 13.8035 20.3009C13.6735 20.1064 13.6042 19.8778 13.6042 19.6438C13.6042 19.3302 13.7288 19.0294 13.9506 18.8076C14.1724 18.5858 14.4732 18.4612 14.7868 18.4612ZM10.6476 18.4612C10.8815 18.4612 11.1101 18.5306 11.3046 18.6605C11.4991 18.7905 11.6507 18.9752 11.7402 19.1913C11.8297 19.4074 11.8531 19.6452 11.8075 19.8746C11.7619 20.104 11.6492 20.3147 11.4838 20.4801C11.3184 20.6455 11.1077 20.7581 10.8783 20.8038C10.6489 20.8494 10.4111 20.826 10.195 20.7365C9.97888 20.647 9.79417 20.4954 9.66422 20.3009C9.53427 20.1064 9.46491 19.8778 9.46491 19.6438C9.46491 19.3302 9.58951 19.0294 9.8113 18.8076C10.0331 18.5858 10.3339 18.4612 10.6476 18.4612Z" fill="url(#paint0_linear_10314_208385)"/>
<path d="M29.4696 20.9735C29.46 20.9192 29.4316 20.87 29.3895 20.8344C29.3474 20.7987 29.2942 20.7789 29.239 20.7784H28.7541C28.6769 20.7548 28.6064 20.7129 28.5488 20.6563C28.4911 20.5997 28.448 20.53 28.423 20.4532C28.3329 20.1707 28.2119 19.899 28.0623 19.6431C28.0369 19.5993 28.0266 19.5483 28.033 19.4981C28.0394 19.4479 28.0622 19.4011 28.0978 19.3651L28.488 18.9749C28.5247 18.932 28.5448 18.8775 28.5448 18.8211C28.5448 18.7647 28.5247 18.7102 28.488 18.6674C28.193 18.2668 27.8403 17.9121 27.4414 17.6148C27.3999 17.5852 27.3505 17.5687 27.2995 17.5675C27.2353 17.5681 27.1738 17.5935 27.128 17.6385L26.7436 18.0287C26.6981 18.0696 26.6393 18.0927 26.5781 18.0938C26.5391 18.1025 26.4987 18.1025 26.4598 18.0938C26.0909 17.883 25.6922 17.7294 25.2771 17.6385V16.8697C25.2752 16.814 25.2542 16.7607 25.2176 16.7187C25.181 16.6767 25.131 16.6486 25.0761 16.6391C24.5825 16.5604 24.0795 16.5604 23.5859 16.6391C23.5306 16.6475 23.4799 16.6753 23.4431 16.7175C23.4063 16.7598 23.3857 16.8137 23.3849 16.8697V17.603C22.9699 17.694 22.5711 17.8475 22.2023 18.0583C22.1633 18.067 22.1229 18.067 22.084 18.0583C22.0228 18.0573 21.964 18.0342 21.9184 17.9933L21.5341 17.603C21.4882 17.5581 21.4268 17.5326 21.3626 17.532C21.3116 17.5332 21.2621 17.5497 21.2207 17.5793C20.8218 17.8766 20.4691 18.2313 20.174 18.6319C20.1374 18.6747 20.1172 18.7293 20.1172 18.7856C20.1172 18.842 20.1374 18.8965 20.174 18.9394L20.5643 19.3296C20.6237 19.3534 20.6714 19.3996 20.6969 19.4583C20.7223 19.517 20.7236 19.5834 20.7003 19.6431C20.5502 19.9009 20.4293 20.1746 20.3396 20.4591C20.3146 20.5359 20.2714 20.6056 20.2138 20.6622C20.1561 20.7188 20.0857 20.7607 20.0084 20.7843H19.5176C19.4625 20.7848 19.4092 20.8046 19.3671 20.8403C19.325 20.8759 19.2967 20.9251 19.287 20.9794C19.2465 21.2297 19.2268 21.4828 19.2279 21.7363C19.2263 21.9899 19.2461 22.243 19.287 22.4932C19.2954 22.5486 19.3232 22.5992 19.3654 22.6361C19.4077 22.6729 19.4616 22.6935 19.5176 22.6943H20.0025C20.0803 22.717 20.1512 22.7585 20.209 22.8153C20.2667 22.872 20.3096 22.9422 20.3337 23.0195C20.4256 23.3004 20.5486 23.5701 20.7003 23.8237C20.7244 23.8689 20.7339 23.9204 20.7275 23.9713C20.7212 24.0221 20.6993 24.0697 20.6648 24.1076L20.2745 24.4978C20.2379 24.5407 20.2177 24.5952 20.2177 24.6516C20.2177 24.7079 20.2379 24.7625 20.2745 24.8053C20.5635 25.2013 20.9057 25.5555 21.2916 25.8579C21.3331 25.8875 21.3825 25.904 21.4335 25.9052C21.4971 25.9019 21.5577 25.8768 21.605 25.8342L21.9894 25.4439C22.0111 25.4224 22.037 25.4055 22.0654 25.3943C22.0939 25.3832 22.1244 25.3779 22.1549 25.3789C22.1964 25.3767 22.2376 25.387 22.2732 25.4085C22.6421 25.6193 23.0408 25.7728 23.4559 25.8638V26.5911C23.4552 26.6482 23.4752 26.7035 23.5122 26.747C23.5491 26.7904 23.6005 26.8191 23.6569 26.8276C24.1505 26.9064 24.6535 26.9064 25.147 26.8276C25.2029 26.818 25.2537 26.789 25.2904 26.7458C25.3271 26.7026 25.3475 26.6478 25.3481 26.5911V25.8638C25.7631 25.7728 26.1619 25.6193 26.5308 25.4085C26.5663 25.387 26.6075 25.3767 26.649 25.3789C26.6796 25.3779 26.71 25.3832 26.7385 25.3943C26.767 25.4055 26.7929 25.4224 26.8146 25.4439L27.1989 25.8342C27.2463 25.8768 27.3068 25.9019 27.3704 25.9052C27.4214 25.904 27.4709 25.8875 27.5123 25.8579C27.9087 25.5576 28.261 25.2033 28.559 24.8053C28.5956 24.7625 28.6158 24.7079 28.6158 24.6516C28.6158 24.5952 28.5956 24.5407 28.559 24.4978L28.1687 24.1076C28.1335 24.0701 28.111 24.0224 28.1047 23.9714C28.0983 23.9204 28.1083 23.8687 28.1332 23.8237C28.2833 23.568 28.4043 23.2962 28.4939 23.0136C28.518 22.9363 28.5609 22.8661 28.6186 22.8094C28.6764 22.7526 28.7473 22.7111 28.8251 22.6884H29.31C29.366 22.6876 29.4199 22.667 29.4622 22.6302C29.5044 22.5933 29.5322 22.5427 29.5406 22.4873C29.5815 22.2371 29.6013 21.9839 29.5997 21.7304C29.5775 21.475 29.534 21.2218 29.4696 20.9735ZM25.7739 21.9551C25.7265 22.2517 25.5867 22.5258 25.3743 22.7382C25.1619 22.9506 24.8878 23.0904 24.5912 23.1378C24.5164 23.1435 24.4413 23.1435 24.3665 23.1378C24.0109 23.1382 23.6683 23.0045 23.4069 22.7634C23.1455 22.5224 22.9846 22.1917 22.9562 21.8372C22.9279 21.4828 23.0342 21.1307 23.2539 20.8511C23.4737 20.5716 23.7907 20.3851 24.1418 20.329H24.3665C24.5709 20.3275 24.7733 20.3704 24.9595 20.4547C25.1458 20.539 25.3116 20.6628 25.4453 20.8174C25.5791 20.972 25.6778 21.1537 25.7345 21.3502C25.7912 21.5466 25.8047 21.753 25.7739 21.9551ZM17.5781 24.3737H9.46511C9.22987 24.3737 9.00426 24.4671 8.83792 24.6334C8.67158 24.7998 8.57812 25.0254 8.57812 25.2606C8.57812 25.4959 8.67158 25.7215 8.83792 25.8878C9.00426 26.0542 9.22987 26.1476 9.46511 26.1476H17.5781C17.8133 26.1476 18.0389 26.0542 18.2053 25.8878C18.3716 25.7215 18.4651 25.4959 18.4651 25.2606C18.4651 25.0254 18.3716 24.7998 18.2053 24.6334C18.0389 24.4671 17.8133 24.3737 17.5781 24.3737Z" fill="url(#paint1_linear_10314_208385)"/>
<defs>
<linearGradient id="paint0_linear_10314_208385" x1="25.8362" y1="9.45335" x2="13.8014" y2="27.6277" gradientUnits="userSpaceOnUse">
<stop stop-color="#A5FECA"/>
<stop offset="0.283155" stop-color="#3EDCEB"/>
<stop offset="0.623976" stop-color="#2594FF"/>
<stop offset="1" stop-color="#5533FF"/>
</linearGradient>
<linearGradient id="paint1_linear_10314_208385" x1="28.7627" y1="16.9236" x2="21.1794" y2="33.2032" gradientUnits="userSpaceOnUse">
<stop stop-color="#A5FECA"/>
<stop offset="0.283155" stop-color="#3EDCEB"/>
<stop offset="0.623976" stop-color="#2594FF"/>
<stop offset="1" stop-color="#5533FF"/>
</linearGradient>
</defs>
</svg>
