<svg width="1920" height="116" viewBox="0 0 1920 116" fill="none" xmlns="http://www.w3.org/2000/svg">
<g clip-path="url(#clip0_9556_178152)">
<path d="M1920 116C1857 116 1629.5 103.179 1504 91.457H1920V116Z" fill="url(#paint0_linear_9556_178152)"/>
<path d="M1920 116C1857 116 1629.5 103.179 1504 91.457H1920V116Z" fill="url(#paint1_linear_9556_178152)"/>
<path d="M0 69V44.5269V8C128.165 8.04994 384.518 8.11967 393.808 8.00322C393.872 8.00213 393.936 8.00105 394 8C393.957 8.00109 393.893 8.00217 393.808 8.00322C305.183 9.51856 94.385 49.2897 0 69Z" fill="url(#paint2_linear_9556_178152)"/>
<path d="M0 69V44.5269V8C128.165 8.04994 384.518 8.11967 393.808 8.00322C393.872 8.00213 393.936 8.00105 394 8C393.957 8.00109 393.893 8.00217 393.808 8.00322C305.183 9.51856 94.385 49.2897 0 69Z" fill="url(#paint3_linear_9556_178152)"/>
<path fill-rule="evenodd" clip-rule="evenodd" d="M0 -1038.07V-1515C216 -1515 521.5 -1505.4 983.856 -1427.55C1365.45 -1363.3 1659 -1357.85 1920 -1449.42V-693.176V-682V-241.265V104.644C1704 104.644 1398.5 97.6775 936.144 41.2174C554.549 -5.38074 321.5 -12.5808 0 57.0813V-480V-480.106V-1038.07Z" fill="#F1FBFF"/>
</g>
<defs>
<linearGradient id="paint0_linear_9556_178152" x1="1482.64" y1="103.728" x2="1908.42" y2="72.3695" gradientUnits="userSpaceOnUse">
<stop stop-color="#BA3838"/>
<stop offset="1" stop-color="#FF0000"/>
</linearGradient>
<linearGradient id="paint1_linear_9556_178152" x1="1424.7" y1="122.596" x2="1505.62" y2="-49.1163" gradientUnits="userSpaceOnUse">
<stop stop-color="#000577"/>
<stop offset="1" stop-color="#00A3FF"/>
</linearGradient>
<linearGradient id="paint2_linear_9556_178152" x1="-20.2324" y1="38.5" x2="384.897" y2="27.1299" gradientUnits="userSpaceOnUse">
<stop stop-color="#BA3838"/>
<stop offset="1" stop-color="#FF0000"/>
</linearGradient>
<linearGradient id="paint3_linear_9556_178152" x1="-75.1062" y1="85.3944" x2="179.9" y2="-120.811" gradientUnits="userSpaceOnUse">
<stop stop-color="#000577"/>
<stop offset="1" stop-color="#00A3FF"/>
</linearGradient>
<clipPath id="clip0_9556_178152">
<rect width="1920" height="116" fill="white"/>
</clipPath>
</defs>
</svg>
