<svg width="1920" height="158" viewBox="0 0 1920 158" fill="none" xmlns="http://www.w3.org/2000/svg">
<path d="M81 5L0 0H1920V57.5V80C1831.5 113.5 1698 133 1669 138C1645.8 142 1586.33 146 1559.5 147.5C1525.5 148.333 1443.2 149.5 1386 147.5C1328.8 145.5 1259.83 139.333 1232.5 136.5L1159 128L1092 118.5L1006.5 105L905 88.5L792.5 72L669 55L541.5 41L440 31.5L365.5 26L322.5 22L265.5 17.5L200.5 12.5L133.5 8L81 5Z" fill="#F7FAFD"/>
<path d="M0 0V14L117 15L200 17.5L285 21L365.5 26L304.5 20.5L235.5 15L165 10L93.5 5.5L0 0Z" fill="url(#paint0_linear_6162_25905)"/>
<path d="M1920 60.5V80.5L1863.5 98.5C1841.83 104.5 1793.6 117.5 1774 121.5C1754.4 125.5 1685.17 135.833 1653 140.5C1669.17 137.667 1704.4 131.4 1716 129C1727.6 126.6 1762.17 119 1778 115.5C1793.17 111.167 1830.1 100 1856.5 90C1882.9 80 1909.83 66.1667 1920 60.5Z" fill="url(#paint1_linear_6162_25905)"/>
<defs>
<linearGradient id="paint0_linear_6162_25905" x1="365.5" y1="8.255" x2="4.96815" y2="-34.5083" gradientUnits="userSpaceOnUse">
<stop stop-color="#2C81F1"/>
<stop offset="1" stop-color="#224189"/>
</linearGradient>
<linearGradient id="paint1_linear_6162_25905" x1="1920" y1="85.9" x2="1653.14" y2="78.3851" gradientUnits="userSpaceOnUse">
<stop stop-color="#2C81F1"/>
<stop offset="1" stop-color="#224189"/>
</linearGradient>
</defs>
</svg>
