<svg width="130" height="36" viewBox="0 0 130 36" fill="none" xmlns="http://www.w3.org/2000/svg">
<g clip-path="url(#clip0_8498_145399)">
<path d="M1.89968 24.9887C1.89968 24.9887 -0.770077 17.5167 0.220317 13.151C1.72744 6.51858 16.7125 6.8544 16.7125 6.8544C16.7125 6.8544 10.8132 8.57548 7.75593 11.8917C1.46907 18.6081 1.89968 24.9887 1.89968 24.9887Z" fill="#007EFF"/>
<path d="M3.70898 7.98709C3.70898 7.98709 9.00544 1.98431 13.3976 0.641034C20.072 -1.41586 27.2631 11.4292 27.2631 11.4292C27.2631 11.4292 22.7848 7.31545 18.3065 6.39195C9.13462 4.41901 3.70898 7.98709 3.70898 7.98709Z" fill="#00A6FF"/>
<path d="M19.6836 1.01953C19.6836 1.01953 27.6498 2.48874 31.0516 5.51112C36.1758 10.1286 28.4249 22.5959 28.4249 22.5959C28.4249 22.5959 29.8459 16.7611 28.4249 12.5214C25.5398 3.79004 19.6836 1.01953 19.6836 1.01953Z" fill="#00D4FF"/>
<path d="M33.85 11.0117C33.85 11.0117 36.5197 18.4837 35.5293 22.8494C34.0222 29.4818 19.0371 29.146 19.0371 29.146C19.0371 29.146 24.9364 27.4249 27.9937 24.1087C34.3236 17.3923 33.85 11.0117 33.85 11.0117Z" fill="#00F5FF"/>
<path d="M32.0854 28.0086C32.0854 28.0086 26.7889 34.0113 22.3968 35.3546C15.7224 37.3695 8.53125 24.5664 8.53125 24.5664C8.53125 24.5664 13.0096 28.6802 17.4879 29.6037C26.6598 31.5766 32.0854 28.0086 32.0854 28.0086Z" fill="#00D4FF"/>
<path d="M16.1096 34.9788C16.1096 34.9788 8.14343 33.5095 4.74165 30.4872C-0.382565 25.8696 7.36834 13.4023 7.36834 13.4023C7.36834 13.4023 5.94734 19.2372 7.36834 23.4769C10.2103 32.1663 16.1096 34.9788 16.1096 34.9788Z" fill="#00A6FF"/>
<path d="M41.3711 27.2529V10.5039H46.6676C47.5288 10.5039 48.3039 10.5879 48.9928 10.7977C49.6818 10.9657 50.2416 11.2595 50.7153 11.6373C51.1889 12.0151 51.5334 12.4768 51.7918 13.0645C52.0501 13.6522 52.1793 14.3239 52.1793 15.1214C52.1793 15.4992 52.1363 15.877 52.0501 16.2128C51.964 16.5487 51.8348 16.8845 51.6626 17.2203C51.4904 17.5141 51.275 17.808 50.9736 18.0598C50.7153 18.3117 50.3708 18.5216 49.9832 18.6895C50.4138 18.8154 50.8014 18.9834 51.1028 19.2352C51.4042 19.4871 51.6626 19.7809 51.8348 20.1167C52.0071 20.4526 52.1793 20.7884 52.2654 21.2082C52.3516 21.586 52.3946 22.0057 52.3946 22.3835C52.3946 24.0206 51.921 25.238 51.0167 26.0775C50.1124 26.9171 48.7775 27.3369 47.012 27.3369H41.3711V27.2529ZM44.8159 17.5141H46.6245C47.3135 17.5141 47.8302 17.3462 48.1747 17.0104C48.5192 16.6746 48.6914 16.1289 48.6914 15.4572C48.6914 14.7017 48.5192 14.1559 48.2177 13.8201C47.9163 13.4843 47.3996 13.3164 46.6676 13.3164H44.8159V17.5141ZM44.8159 19.9908V24.4824H47.0551C47.3996 24.4824 47.701 24.4404 47.9163 24.3145C48.1747 24.1886 48.3469 24.0626 48.5192 23.8527C48.6914 23.6428 48.7775 23.433 48.8636 23.1811C48.9498 22.9292 48.9498 22.6354 48.9498 22.2996C48.9498 21.586 48.8206 21.0402 48.5622 20.6205C48.3039 20.2007 47.8302 19.9908 47.1843 19.9908H44.8159Z" fill="white"/>
<path d="M53.7305 27.2529V10.5039H59.0269C59.8881 10.5039 60.6632 10.5879 61.3522 10.7977C62.0412 10.9657 62.601 11.2595 63.0746 11.6373C63.5483 12.0151 63.8928 12.4768 64.1511 13.0645C64.4095 13.6522 64.5387 14.3239 64.5387 15.1214C64.5387 15.4992 64.4956 15.877 64.4095 16.2128C64.3234 16.5487 64.1942 16.8845 64.022 17.2203C63.8497 17.5141 63.6344 17.808 63.333 18.0598C63.0746 18.3117 62.7301 18.5216 62.3426 18.6895C62.7732 18.8154 63.1607 18.9834 63.4622 19.2352C63.7636 19.4871 64.022 19.7809 64.1942 20.1167C64.3664 20.4526 64.5387 20.7884 64.6248 21.2082C64.7109 21.586 64.754 22.0057 64.754 22.3835C64.754 24.0206 64.2803 25.238 63.3761 26.0775C62.4718 26.9171 61.1369 27.3369 59.3714 27.3369H53.7305V27.2529ZM57.1753 17.5141H58.9839C59.6728 17.5141 60.1896 17.3462 60.534 17.0104C60.8785 16.6746 61.0508 16.1289 61.0508 15.4572C61.0508 14.7017 60.8785 14.1559 60.5771 13.8201C60.2757 13.4843 59.759 13.3164 59.0269 13.3164H57.1753V17.5141ZM57.1753 19.9908V24.4824H59.4145C59.759 24.4824 60.0604 24.4404 60.2757 24.3145C60.534 24.1886 60.7063 24.0626 60.8785 23.8527C61.0508 23.6428 61.1369 23.433 61.223 23.1811C61.3091 22.9292 61.3091 22.6354 61.3091 22.2996C61.3091 21.586 61.18 21.0402 60.9216 20.6205C60.6632 20.2007 60.1896 19.9908 59.5437 19.9908H57.1753Z" fill="white"/>
<path d="M77.7149 21.6698C77.6288 23.6008 77.069 25.028 76.0786 25.9935C75.0451 26.9589 73.6241 27.4627 71.7725 27.4627C70.8252 27.4627 69.964 27.2948 69.232 27.0009C68.4999 26.7071 67.854 26.2453 67.3373 25.6157C66.8206 25.028 66.433 24.2724 66.1747 23.3489C65.9163 22.4674 65.7871 21.4179 65.7871 20.2426V17.3881C65.7871 16.2127 65.9163 15.2053 66.2177 14.2818C66.4761 13.4002 66.9067 12.6446 67.4234 12.015C67.9401 11.4273 68.586 10.9655 69.3181 10.6297C70.0501 10.3359 70.9113 10.168 71.8587 10.168C73.7533 10.168 75.1743 10.6717 76.1216 11.6792C77.112 12.6866 77.6288 14.1558 77.801 16.0868H74.3131C74.3131 15.4991 74.227 14.9954 74.1409 14.5756C74.0547 14.1558 73.9256 13.862 73.7103 13.6101C73.538 13.3583 73.2796 13.1903 72.9782 13.1064C72.6768 13.0224 72.2893 12.9385 71.8587 12.9385C71.385 12.9385 70.9974 13.0224 70.653 13.1484C70.3085 13.3163 70.0501 13.5681 69.8348 13.904C69.6195 14.2398 69.4903 14.7015 69.3611 15.2472C69.275 15.7929 69.232 16.4646 69.232 17.3041V20.2006C69.232 20.9981 69.275 21.6698 69.3611 22.2155C69.4473 22.7612 69.5764 23.223 69.7917 23.5588C70.007 23.8946 70.2654 24.1465 70.5668 24.3144C70.8683 24.4823 71.2989 24.5662 71.8156 24.5662C72.2462 24.5662 72.5907 24.5243 72.8921 24.4403C73.1935 24.3563 73.4519 24.1884 73.6241 23.9785C73.8394 23.7687 73.9686 23.4328 74.0547 23.055C74.1409 22.6772 74.227 22.1735 74.227 21.5858H77.7149V21.6698Z" fill="white"/>
<path d="M82.2789 27.2529H78.791V10.5039H82.2789V27.2529Z" fill="white"/>
<path d="M85.5945 14.8271L85.6375 16.8C86.0251 16.1284 86.4987 15.5827 87.1016 15.2049C87.7044 14.8271 88.3503 14.6172 89.0824 14.6172C89.5991 14.6172 90.1158 14.7011 90.5034 14.8691C90.934 15.037 91.2785 15.2888 91.5799 15.6666C91.8813 16.0444 92.0966 16.5062 92.2689 17.0939C92.4411 17.6815 92.4842 18.3532 92.4842 19.1927V27.2944H91.1924V19.1508C91.1924 18.5211 91.1493 17.9754 91.0201 17.5556C90.8909 17.1358 90.7617 16.8 90.5464 16.5062C90.3311 16.2543 90.0728 16.0444 89.7713 15.9605C89.4699 15.8345 89.1254 15.7926 88.7379 15.7926C88.3503 15.7926 87.9628 15.8765 87.6614 16.0444C87.3169 16.2123 87.0585 16.4222 86.8002 16.6741C86.5418 16.9259 86.3265 17.2198 86.1112 17.5556C85.9389 17.8914 85.7667 18.2272 85.6375 18.605V27.2524H84.3457V14.8271H85.5945Z" fill="white"/>
<path d="M98.8145 26.3279C99.159 26.3279 99.5465 26.2859 99.848 26.202C100.192 26.118 100.494 25.9501 100.752 25.7402C101.011 25.5303 101.226 25.2365 101.398 24.8587C101.57 24.4809 101.657 24.0192 101.7 23.4734H102.948C102.905 24.1451 102.776 24.7328 102.561 25.2365C102.345 25.7402 102.044 26.16 101.657 26.4958C101.269 26.8316 100.838 27.0835 100.365 27.2934C99.891 27.4613 99.3743 27.5453 98.8145 27.5453C97.2643 27.5453 96.1448 27.0415 95.3697 26.076C94.5946 25.1106 94.207 23.6833 94.207 21.7524V20.3671C94.207 18.4781 94.5946 17.0089 95.3697 16.0434C96.1448 15.0779 97.3074 14.5742 98.8145 14.5742C99.4174 14.5742 99.9341 14.6582 100.451 14.8261C100.968 14.994 101.398 15.2878 101.743 15.6237C102.13 16.0015 102.389 16.4632 102.604 17.0089C102.819 17.5546 102.948 18.2263 102.991 18.9819H101.743C101.7 18.3942 101.613 17.9324 101.484 17.5126C101.355 17.0929 101.14 16.757 100.881 16.5052C100.623 16.2533 100.322 16.0434 99.9771 15.9175C99.6327 15.7916 99.2451 15.7496 98.8576 15.7496C98.2547 15.7496 97.738 15.8335 97.3074 16.0434C96.8768 16.2533 96.5323 16.5472 96.2739 16.925C96.0156 17.3028 95.8433 17.8065 95.7141 18.3522C95.585 18.8979 95.5419 19.5695 95.5419 20.2832V21.6684C95.5419 22.382 95.585 23.0537 95.7141 23.5994C95.8433 24.1871 96.0156 24.6488 96.2739 25.0266C96.5323 25.4044 96.8768 25.6982 97.3074 25.9081C97.6949 26.202 98.2117 26.3279 98.8145 26.3279Z" fill="white"/>
<path d="M104.068 20.4101C104.068 19.4866 104.198 18.647 104.413 17.9334C104.628 17.2198 104.973 16.5901 105.36 16.1284C105.791 15.6246 106.264 15.2469 106.824 14.995C107.384 14.7431 108.03 14.6172 108.719 14.6172C109.408 14.6172 110.054 14.7431 110.614 14.995C111.173 15.2469 111.69 15.6246 112.078 16.1284C112.465 16.6321 112.81 17.2198 113.025 17.9334C113.24 18.647 113.369 19.4866 113.369 20.4101V21.7114C113.369 22.6349 113.24 23.4744 113.025 24.1881C112.81 24.9017 112.465 25.5313 112.078 25.9931C111.647 26.4968 111.173 26.8326 110.614 27.0845C110.054 27.3364 109.408 27.4623 108.719 27.4623C108.03 27.4623 107.384 27.3364 106.824 27.0845C106.264 26.8326 105.748 26.4548 105.36 25.9931C104.93 25.4894 104.628 24.9017 104.413 24.1881C104.198 23.4744 104.068 22.6349 104.068 21.7114V20.4101ZM105.36 21.7114C105.36 22.425 105.446 23.0547 105.575 23.6423C105.705 24.23 105.963 24.6918 106.221 25.1116C106.523 25.4894 106.867 25.8252 107.298 26.0351C107.729 26.2449 108.202 26.3709 108.719 26.3709C109.279 26.3709 109.795 26.2449 110.183 26.0351C110.614 25.8252 110.958 25.5313 111.216 25.1116C111.475 24.6918 111.69 24.23 111.819 23.6423C111.948 23.0547 112.035 22.425 112.035 21.7114V20.4101C112.035 19.6965 111.948 19.0668 111.819 18.5211C111.69 17.9334 111.432 17.4717 111.173 17.0519C110.872 16.6321 110.527 16.3383 110.097 16.1284C109.666 15.9185 109.193 15.7926 108.676 15.7926C108.159 15.7926 107.685 15.9185 107.255 16.1284C106.824 16.3383 106.48 16.6741 106.221 17.0519C105.92 17.4717 105.705 17.9334 105.575 18.5211C105.446 19.1088 105.36 19.7384 105.36 20.4101V21.7114Z" fill="white"/>
<path d="M120.216 16.0015C120.086 15.9595 119.957 15.9595 119.828 15.9595C119.699 15.9595 119.57 15.9175 119.398 15.9175C119.01 15.9175 118.665 16.0015 118.364 16.1274C118.063 16.2533 117.761 16.4632 117.546 16.6731C117.331 16.925 117.115 17.2188 116.943 17.5546C116.771 17.8904 116.642 18.2682 116.555 18.646V27.2514H115.264V14.8261H116.555L116.599 16.6731C116.9 16.0015 117.288 15.4977 117.761 15.1199C118.235 14.7421 118.838 14.5742 119.527 14.5742C119.656 14.5742 119.828 14.5742 119.957 14.6162C120.13 14.6582 120.216 14.7002 120.302 14.7002L120.216 16.0015Z" fill="white"/>
<path d="M130.032 21.6274C130.032 22.6349 129.946 23.5164 129.774 24.23C129.602 24.9856 129.343 25.5733 128.956 26.077C128.611 26.5808 128.181 26.9166 127.664 27.1685C127.147 27.4203 126.587 27.5043 125.941 27.5043C125.166 27.5043 124.52 27.3364 123.961 27.0425C123.401 26.7487 122.97 26.3289 122.626 25.7832V32.0798H121.334V14.8271H122.54L122.583 16.5482C122.927 15.9605 123.401 15.4567 123.918 15.1209C124.477 14.7851 125.123 14.6172 125.898 14.6172C126.544 14.6172 127.147 14.7431 127.664 14.953C128.181 15.1629 128.611 15.5407 128.956 16.0024C129.3 16.4642 129.559 17.0939 129.774 17.8075C129.946 18.5631 130.032 19.4446 130.032 20.494V21.6274ZM128.697 20.4521C128.697 18.8569 128.439 17.6815 127.922 16.9259C127.405 16.1704 126.63 15.7926 125.554 15.7926C125.166 15.7926 124.779 15.8345 124.477 15.9605C124.176 16.0864 123.875 16.2123 123.659 16.4222C123.401 16.6321 123.229 16.842 123.056 17.0939C122.884 17.3457 122.755 17.5976 122.626 17.8914V24.4399C122.755 24.6918 122.927 24.9436 123.099 25.1955C123.272 25.4054 123.487 25.6153 123.745 25.7832C124.004 25.9511 124.262 26.077 124.564 26.161C124.865 26.2449 125.209 26.2869 125.597 26.2869C126.673 26.2869 127.449 25.9091 127.965 25.1535C128.482 24.3979 128.74 23.2226 128.74 21.6274V20.4521H128.697Z" fill="white"/>
</g>
<defs>
<clipPath id="clip0_8498_145399">
<rect width="130" height="35.1351" fill="white" transform="translate(0 0.433594)"/>
</clipPath>
</defs>
</svg>
