<svg width="48" height="48" viewBox="0 0 48 48" fill="none" xmlns="http://www.w3.org/2000/svg">
<circle cx="24" cy="24" r="24" fill="#F7FAFD"/>
<g clip-path="url(#clip0_8579_181059)">
<path d="M10.5584 19.0137C10.1451 19.0137 9.74872 19.1779 9.45646 19.4701C9.16419 19.7624 9 20.1588 9 20.5721V33.8189C9 34.2322 9.16419 34.6286 9.45646 34.9209C9.74872 35.2131 10.1451 35.3773 10.5584 35.3773C10.9718 35.3773 11.3682 35.2131 11.6604 34.9209C11.9527 34.6286 12.1169 34.2322 12.1169 33.8189V20.5721C12.1169 20.1588 11.9527 19.7624 11.6604 19.4701C11.3682 19.1779 10.9718 19.0137 10.5584 19.0137Z" fill="url(#paint0_linear_8579_181059)"/>
<path d="M37.4401 12H15.6219C15.4126 11.9999 15.2054 12.0419 15.0126 12.1236C14.8199 12.2053 14.6456 12.325 14.5002 12.4756C14.3547 12.6261 14.2411 12.8044 14.1661 12.9998C14.091 13.1953 14.0561 13.4038 14.0635 13.613V35.3766H35.8816C36.2981 35.3695 36.7092 35.2804 37.0912 35.1145C37.4733 34.9485 37.8189 34.7089 38.1083 34.4093C38.3978 34.1097 38.6254 33.7561 38.7781 33.3685C38.9308 32.981 39.0057 32.5671 38.9985 32.1507V13.613C39.0058 13.4038 38.971 13.1953 38.8959 12.9998C38.8209 12.8044 38.7073 12.6261 38.5618 12.4756C38.4164 12.325 38.2421 12.2053 38.0493 12.1236C37.8566 12.0419 37.6494 11.9999 37.4401 12ZM28.0894 16.6753C28.0894 16.4687 28.1715 16.2705 28.3177 16.1243C28.4638 15.9782 28.662 15.8961 28.8686 15.8961H33.544C33.7506 15.8961 33.9488 15.9782 34.095 16.1243C34.2411 16.2705 34.3232 16.4687 34.3232 16.6753V21.3506C34.3232 21.5573 34.2411 21.7555 34.095 21.9016C33.9488 22.0478 33.7506 22.1299 33.544 22.1299H28.8686C28.662 22.1299 28.4638 22.0478 28.3177 21.9016C28.1715 21.7555 28.0894 21.5573 28.0894 21.3506V16.6753ZM19.1284 16.8701H23.8037C24.062 16.8701 24.3098 16.9728 24.4925 17.1554C24.6751 17.3381 24.7777 17.5858 24.7777 17.8442C24.7777 18.1025 24.6751 18.3502 24.4925 18.5329C24.3098 18.7156 24.062 18.8182 23.8037 18.8182H19.1284C18.8701 18.8182 18.6223 18.7156 18.4397 18.5329C18.257 18.3502 18.1544 18.1025 18.1544 17.8442C18.1544 17.5858 18.257 17.3381 18.4397 17.1554C18.6223 16.9728 18.8701 16.8701 19.1284 16.8701ZM19.1284 20.7662H23.8037C24.062 20.7662 24.3098 20.8689 24.4925 21.0515C24.6751 21.2342 24.7777 21.4819 24.7777 21.7403C24.7777 21.9986 24.6751 22.2463 24.4925 22.429C24.3098 22.6117 24.062 22.7143 23.8037 22.7143H19.1284C18.8701 22.7143 18.6223 22.6117 18.4397 22.429C18.257 22.2463 18.1544 21.9986 18.1544 21.7403C18.1544 21.4819 18.257 21.2342 18.4397 21.0515C18.6223 20.8689 18.8701 20.7662 19.1284 20.7662ZM33.9336 30.5065H19.1284C18.8701 30.5065 18.6223 30.4039 18.4397 30.2212C18.257 30.0385 18.1544 29.7908 18.1544 29.5325C18.1544 29.2741 18.257 29.0264 18.4397 28.8437C18.6223 28.6611 18.8701 28.5584 19.1284 28.5584H33.9336C34.1919 28.5584 34.4397 28.6611 34.6223 28.8437C34.805 29.0264 34.9076 29.2741 34.9076 29.5325C34.9076 29.7908 34.805 30.0385 34.6223 30.2212C34.4397 30.4039 34.1919 30.5065 33.9336 30.5065ZM33.9336 26.6104H19.1284C18.8701 26.6104 18.6223 26.5078 18.4397 26.3251C18.257 26.1424 18.1544 25.8947 18.1544 25.6364C18.1544 25.378 18.257 25.1303 18.4397 24.9476C18.6223 24.765 18.8701 24.6623 19.1284 24.6623H33.9336C34.1919 24.6623 34.4397 24.765 34.6223 24.9476C34.805 25.1303 34.9076 25.378 34.9076 25.6364C34.9076 25.8947 34.805 26.1424 34.6223 26.3251C34.4397 26.5078 34.1919 26.6104 33.9336 26.6104Z" fill="url(#paint1_linear_8579_181059)"/>
</g>
<defs>
<linearGradient id="paint0_linear_8579_181059" x1="11.9928" y1="19.5591" x2="5.93026" y2="20.7745" gradientUnits="userSpaceOnUse">
<stop stop-color="#A5FECA"/>
<stop offset="0.283155" stop-color="#3EDCEB"/>
<stop offset="0.623976" stop-color="#2594FF"/>
<stop offset="1" stop-color="#5533FF"/>
</linearGradient>
<linearGradient id="paint1_linear_8579_181059" x1="38.0064" y1="12.7792" x2="15.6883" y2="37.8376" gradientUnits="userSpaceOnUse">
<stop stop-color="#A5FECA"/>
<stop offset="0.283155" stop-color="#3EDCEB"/>
<stop offset="0.623976" stop-color="#2594FF"/>
<stop offset="1" stop-color="#5533FF"/>
</linearGradient>
<clipPath id="clip0_8579_181059">
<rect width="30" height="23.3766" fill="white" transform="translate(9 12)"/>
</clipPath>
</defs>
</svg>
