<svg width="48" height="48" viewBox="0 0 48 48" fill="none" xmlns="http://www.w3.org/2000/svg">
<circle cx="24" cy="24" r="24" fill="#F7FAFD"/>
<path d="M33.6402 15.9766H13.7939C13.5833 15.9766 13.3814 16.0602 13.2325 16.2091C13.0836 16.358 13 16.5599 13 16.7704V38.2045C13 38.4151 13.0836 38.617 13.2325 38.7659C13.3814 38.9147 13.5833 38.9984 13.7939 38.9984H33.6402C33.8508 38.9984 34.0527 38.9147 34.2016 38.7659C34.3505 38.617 34.4341 38.4151 34.4341 38.2045V16.7704C34.4341 16.5599 34.3505 16.358 34.2016 16.2091C34.0527 16.0602 33.8508 15.9766 33.6402 15.9766ZM17.1677 19.8188H22.1293C22.3925 19.8188 22.6449 19.9234 22.831 20.1095C23.0171 20.2956 23.1217 20.548 23.1217 20.8111C23.1217 21.0743 23.0171 21.3267 22.831 21.5128C22.6449 21.6989 22.3925 21.8035 22.1293 21.8035H17.1677C16.9046 21.8035 16.6522 21.6989 16.4661 21.5128C16.28 21.3267 16.1754 21.0743 16.1754 20.8111C16.1754 20.548 16.28 20.2956 16.4661 20.1095C16.6522 19.9234 16.9046 19.8188 17.1677 19.8188ZM17.1677 24.5105H22.1293C22.3925 24.5105 22.6449 24.6151 22.831 24.8012C23.0171 24.9873 23.1217 25.2397 23.1217 25.5028C23.1217 25.766 23.0171 26.0184 22.831 26.2045C22.6449 26.3906 22.3925 26.4951 22.1293 26.4951H17.1677C16.9046 26.4951 16.6522 26.3906 16.4661 26.2045C16.28 26.0184 16.1754 25.766 16.1754 25.5028C16.1754 25.2397 16.28 24.9873 16.4661 24.8012C16.6522 24.6151 16.9046 24.5105 17.1677 24.5105ZM29.274 36.0055H17.1677C16.9046 36.0055 16.6522 35.901 16.4661 35.7149C16.28 35.5288 16.1754 35.2764 16.1754 35.0132C16.1754 34.75 16.28 34.4976 16.4661 34.3115C16.6522 34.1254 16.9046 34.0209 17.1677 34.0209H29.274C29.5372 34.0209 29.7896 34.1254 29.9757 34.3115C30.1618 34.4976 30.2664 34.75 30.2664 35.0132C30.2664 35.2764 30.1618 35.5288 29.9757 35.7149C29.7896 35.901 29.5372 36.0055 29.274 36.0055ZM29.274 31.2424H17.1677C16.9046 31.2424 16.6522 31.1379 16.4661 30.9518C16.28 30.7657 16.1754 30.5133 16.1754 30.2501C16.1754 29.9869 16.28 29.7345 16.4661 29.5484C16.6522 29.3623 16.9046 29.2578 17.1677 29.2578H29.274C29.5372 29.2578 29.7896 29.3623 29.9757 29.5484C30.1618 29.7345 30.2664 29.9869 30.2664 30.2501C30.2664 30.5133 30.1618 30.7657 29.9757 30.9518C29.7896 31.1379 29.5372 31.2424 29.274 31.2424ZM30.4648 25.1774C30.4648 25.3879 30.3812 25.5898 30.2323 25.7387C30.0834 25.8876 29.8815 25.9712 29.671 25.9712H26.4955C26.285 25.9712 26.0831 25.8876 25.9342 25.7387C25.7853 25.5898 25.7017 25.3879 25.7017 25.1774V20.8111C25.7017 20.6006 25.7853 20.3987 25.9342 20.2498C26.0831 20.1009 26.285 20.0173 26.4955 20.0173H29.671C29.8815 20.0173 30.0834 20.1009 30.2323 20.2498C30.3812 20.3987 30.4648 20.6006 30.4648 20.8111V25.1774Z" fill="url(#paint0_linear_8579_181035)"/>
<path d="M31.1002 9.01607L13.5005 12.6837C13.3485 12.7253 13.2165 12.82 13.1284 12.9506C13.0402 13.0811 13.0018 13.239 13.0201 13.3955C13.0383 13.5519 13.112 13.6967 13.2278 13.8035C13.3436 13.9103 13.4939 13.9721 13.6513 13.9777H31.259C31.4696 13.9777 31.6715 13.894 31.8204 13.7452C31.9692 13.5963 32.0529 13.3944 32.0529 13.1838V9.80993C32.0553 9.69086 32.0309 9.57278 31.9815 9.46443C31.932 9.35608 31.8589 9.26024 31.7674 9.184C31.6759 9.10776 31.5684 9.05308 31.453 9.02401C31.3375 8.99494 31.2169 8.99223 31.1002 9.01607Z" fill="url(#paint1_linear_8579_181035)"/>
<defs>
<linearGradient id="paint0_linear_8579_181035" x1="33.5805" y1="16.744" x2="11.4581" y2="38.4226" gradientUnits="userSpaceOnUse">
<stop stop-color="#A5FECA"/>
<stop offset="0.283155" stop-color="#3EDCEB"/>
<stop offset="0.623976" stop-color="#2594FF"/>
<stop offset="1" stop-color="#5533FF"/>
</linearGradient>
<linearGradient id="paint1_linear_8579_181035" x1="31.2949" y1="9.16592" x2="29.0561" y2="18.1781" gradientUnits="userSpaceOnUse">
<stop stop-color="#A5FECA"/>
<stop offset="0.283155" stop-color="#3EDCEB"/>
<stop offset="0.623976" stop-color="#2594FF"/>
<stop offset="1" stop-color="#5533FF"/>
</linearGradient>
</defs>
</svg>
