<svg width="48" height="48" viewBox="0 0 48 48" fill="none" xmlns="http://www.w3.org/2000/svg">
<circle cx="24" cy="24" r="24" fill="#F7FAFD"/>
<g clip-path="url(#clip0_8579_181080)">
<path d="M37.4411 12H35.8827C35.022 12 34.3242 12.6977 34.3242 13.5584V33.8182C34.3242 34.6789 35.022 35.3766 35.8827 35.3766H37.4411C38.3018 35.3766 38.9995 34.6789 38.9995 33.8182V13.5584C38.9995 12.6977 38.3018 12 37.4411 12Z" fill="url(#paint0_linear_8579_181080)"/>
<path d="M31.8779 14.2441L14.3455 19.1766C14.2645 19.2002 14.1934 19.2494 14.1429 19.3169C14.0923 19.3843 14.0649 19.4663 14.0649 19.5506V28.8545V31.9714C14.0657 32.5868 14.2846 33.1819 14.6826 33.6513C15.0806 34.1206 15.632 34.4337 16.239 34.535L21.9506 35.4857C22.0922 35.5102 22.2355 35.5233 22.3792 35.5246C23.0681 35.5226 23.7281 35.2475 24.2145 34.7596C24.7009 34.2718 24.974 33.6109 24.974 32.922V31.8311L31.8857 33.7091C31.9438 33.7231 32.0043 33.7239 32.0628 33.7113C32.1212 33.6988 32.176 33.6732 32.2232 33.6365C32.2704 33.5998 32.3087 33.5529 32.3353 33.4994C32.3618 33.4459 32.376 33.387 32.3766 33.3272V14.6259C32.3778 14.5648 32.3647 14.5042 32.3381 14.4491C32.3116 14.394 32.2725 14.3459 32.2239 14.3088C32.1754 14.2716 32.1188 14.2464 32.0586 14.2351C31.9985 14.2239 31.9366 14.227 31.8779 14.2441ZM22.6364 32.8987C22.6376 32.9374 22.6298 32.9758 22.6135 33.011C22.5973 33.0462 22.5731 33.0771 22.5429 33.1013C22.5136 33.1247 22.4798 33.1417 22.4435 33.1511C22.4072 33.1605 22.3694 33.1621 22.3325 33.1558L16.6208 32.2052C16.5595 32.1958 16.5037 32.1646 16.4636 32.1173C16.4236 32.0701 16.4019 32.01 16.4026 31.948V29.4857L22.6364 31.1766V32.8987ZM11.7273 19.7922H10.5584C10.1451 19.7922 9.74872 19.9564 9.45646 20.2486C9.16419 20.5409 9 20.9373 9 21.3506V26.8052C9 27.2185 9.16419 27.6149 9.45646 27.9071C9.74872 28.1994 10.1451 28.3636 10.5584 28.3636H11.7273C11.8306 28.3636 11.9297 28.3226 12.0028 28.2495C12.0758 28.1764 12.1169 28.0773 12.1169 27.974V20.1818C12.1169 20.0785 12.0758 19.9794 12.0028 19.9063C11.9297 19.8332 11.8306 19.7922 11.7273 19.7922Z" fill="url(#paint1_linear_8579_181080)"/>
</g>
<defs>
<linearGradient id="paint0_linear_8579_181080" x1="38.8134" y1="12.7792" x2="29.7555" y2="14.686" gradientUnits="userSpaceOnUse">
<stop stop-color="#A5FECA"/>
<stop offset="0.283155" stop-color="#3EDCEB"/>
<stop offset="0.623976" stop-color="#2594FF"/>
<stop offset="1" stop-color="#5533FF"/>
</linearGradient>
<linearGradient id="paint1_linear_8579_181080" x1="31.4458" y1="14.9384" x2="11.189" y2="38.3422" gradientUnits="userSpaceOnUse">
<stop stop-color="#A5FECA"/>
<stop offset="0.283155" stop-color="#3EDCEB"/>
<stop offset="0.623976" stop-color="#2594FF"/>
<stop offset="1" stop-color="#5533FF"/>
</linearGradient>
<clipPath id="clip0_8579_181080">
<rect width="30" height="23.5013" fill="white" transform="translate(9 12)"/>
</clipPath>
</defs>
</svg>
