<svg width="48" height="48" viewBox="0 0 48 48" fill="none" xmlns="http://www.w3.org/2000/svg">
<circle cx="24" cy="24" r="24" fill="#F7FAFD"/>
<path d="M30.306 9H21.1471V16.0589C21.1402 16.8758 20.8126 17.6573 20.2349 18.2349C19.6573 18.8126 18.8758 19.1402 18.0589 19.1471H11V33.4854C11 33.9534 11.1859 34.4023 11.5169 34.7332C11.8478 35.0642 12.2967 35.2501 12.7647 35.2501H21.1383C21.1646 35.0725 21.209 34.8981 21.2706 34.7295C20.8718 34.5581 20.5227 34.2886 20.2558 33.9462C19.989 33.6037 19.8129 33.1994 19.7442 32.7707C19.6029 31.8023 19.6029 30.8185 19.7442 29.8501C19.8129 29.4214 19.989 29.0171 20.2558 28.6746C20.5227 28.3322 20.8718 28.0627 21.2706 27.8913C21.1096 27.4848 21.0543 27.0442 21.1099 26.6106C21.1654 26.177 21.33 25.7646 21.5883 25.4118C22.1605 24.6471 22.8378 23.9668 23.6001 23.3912C24.041 23.068 24.5711 22.8893 25.1177 22.8795C25.4535 22.8815 25.7859 22.9473 26.0971 23.0736C26.2663 22.6682 26.537 22.3132 26.8832 22.0428C27.2294 21.7723 27.6393 21.5955 28.0736 21.5295C29.0263 21.3765 29.9974 21.3765 30.9501 21.5295C31.3479 21.5964 31.7251 21.7533 32.053 21.9883V10.7647C32.0531 10.2997 31.8696 9.85352 31.5424 9.52307C31.2153 9.19263 30.7709 9.00465 30.306 9V9Z" fill="url(#paint0_linear_8579_181104)"/>
<path d="M18.6403 9.14031L11.1403 16.6403C11.1161 16.665 11.0997 16.6962 11.0931 16.7301C11.0865 16.764 11.09 16.7991 11.1031 16.8311C11.1163 16.863 11.1385 16.8904 11.1671 16.9098C11.1957 16.9292 11.2293 16.9399 11.2638 16.9403H18.2697C18.4476 16.9403 18.6182 16.8697 18.7439 16.7439C18.8697 16.6182 18.9403 16.4476 18.9403 16.2697V9.26384C18.9399 9.2293 18.9292 9.19566 18.9098 9.16709C18.8904 9.13853 18.863 9.11629 18.8311 9.10314C18.7991 9.08998 18.764 9.08649 18.7301 9.0931C18.6962 9.09971 18.665 9.11612 18.6403 9.14031ZM37.1257 30.1757C37.1132 30.093 37.0717 30.0175 37.0087 29.9626C36.9457 29.9076 36.8652 29.8768 36.7816 29.8757H36.0581C35.9421 29.8418 35.8362 29.7798 35.75 29.6951C35.6638 29.6105 35.5999 29.5058 35.5639 29.3904C35.4285 28.9665 35.248 28.5583 35.0257 28.1727C34.9878 28.1074 34.9724 28.0314 34.982 27.9564C34.9915 27.8815 35.0255 27.8118 35.0786 27.758L35.661 27.1757C35.7157 27.1117 35.7457 27.0304 35.7457 26.9463C35.7457 26.8621 35.7157 26.7808 35.661 26.7169C35.2207 26.1192 34.6944 25.5899 34.0992 25.1463C34.0339 25.0909 33.951 25.0605 33.8654 25.0605C33.7798 25.0605 33.6969 25.0909 33.6316 25.1463L33.0581 25.7639C33.0051 25.8184 32.9353 25.8533 32.86 25.8629C32.7846 25.8725 32.7082 25.8563 32.6433 25.8168C32.0929 25.5023 31.4979 25.2732 30.8786 25.1374V24.061C30.8778 23.9763 30.8473 23.8947 30.7925 23.8302C30.7377 23.7657 30.662 23.7225 30.5786 23.708C29.8421 23.5905 29.0916 23.5905 28.3551 23.708C28.2709 23.7208 28.1942 23.7635 28.1391 23.8284C28.084 23.8932 28.0541 23.9758 28.0551 24.061V25.1463C27.4358 25.282 26.8408 25.5111 26.2904 25.8257C26.2403 25.8378 26.1882 25.8386 26.1378 25.8279C26.0874 25.8172 26.04 25.7953 25.9992 25.7639L25.4257 25.1816C25.3603 25.1262 25.2775 25.0958 25.1918 25.0958C25.1062 25.0958 25.0234 25.1262 24.958 25.1816C24.3491 25.6137 23.8079 26.1342 23.3521 26.7257C23.2974 26.7896 23.2674 26.871 23.2674 26.9551C23.2674 27.0392 23.2974 27.1206 23.3521 27.1845L23.9345 27.7669C23.9796 27.8266 24.004 27.8994 24.004 27.9742C24.004 28.049 23.9796 28.1218 23.9345 28.1816C23.7186 28.5691 23.5413 28.977 23.4051 29.3992C23.3691 29.5146 23.3052 29.6193 23.219 29.704C23.1328 29.7886 23.027 29.8507 22.9109 29.8845H22.1874C22.1033 29.8838 22.0218 29.914 21.9584 29.9692C21.895 30.0245 21.8541 30.1011 21.8433 30.1845C21.7822 30.5578 21.7527 30.9356 21.7551 31.3139C21.7534 31.6922 21.7829 32.0699 21.8433 32.4433C21.856 32.5252 21.8978 32.5996 21.961 32.6531C22.0242 32.7066 22.1046 32.7355 22.1874 32.7345H22.9109C23.0262 32.7697 23.1314 32.8322 23.2174 32.9167C23.3034 33.0012 23.3678 33.1052 23.4051 33.2198C23.5413 33.6421 23.7186 34.0499 23.9345 34.4375C23.9796 34.4972 24.004 34.57 24.004 34.6448C24.004 34.7197 23.9796 34.7925 23.9345 34.8522L23.3521 35.4345C23.2974 35.4985 23.2674 35.5798 23.2674 35.6639C23.2674 35.7481 23.2974 35.8294 23.3521 35.8934C23.7924 36.491 24.3187 37.0203 24.9139 37.464C24.9792 37.5193 25.0621 37.5497 25.1477 37.5497C25.2334 37.5497 25.3162 37.5193 25.3815 37.464L25.9551 36.8816C26.0094 36.8264 26.0808 36.7911 26.1576 36.7815C26.2345 36.7719 26.3124 36.7885 26.3786 36.8287C26.929 37.1432 27.5241 37.3723 28.1433 37.5081V38.5581C28.1424 38.6432 28.1722 38.7258 28.2273 38.7907C28.2824 38.8555 28.3592 38.8983 28.4433 38.911C29.1798 39.0285 29.9303 39.0285 30.6669 38.911C30.7503 38.8966 30.8259 38.8533 30.8808 38.7889C30.9356 38.7244 30.966 38.6427 30.9669 38.5581V37.4728C31.5861 37.337 32.1812 37.1079 32.7316 36.7934C32.7965 36.7539 32.8729 36.7377 32.9482 36.7473C33.0235 36.7569 33.0934 36.7918 33.1463 36.8463L33.7286 37.4287C33.794 37.484 33.8768 37.5144 33.9625 37.5144C34.0481 37.5144 34.131 37.484 34.1963 37.4287C34.7702 36.9918 35.2783 36.4748 35.7051 35.8934C35.7509 35.8323 35.7757 35.758 35.7757 35.6816C35.7757 35.6052 35.7509 35.5309 35.7051 35.4698L35.1228 34.8875C35.0696 34.8338 35.0357 34.764 35.0261 34.6891C35.0165 34.6141 35.0319 34.5381 35.0698 34.4728C35.2922 34.0872 35.4726 33.679 35.6081 33.2551C35.6454 33.1405 35.7097 33.0365 35.7957 32.952C35.8818 32.8675 35.9869 32.805 36.1022 32.7698H36.8257C36.908 32.769 36.9875 32.7395 37.0503 32.6863C37.1132 32.6332 37.1554 32.5597 37.1698 32.4786C37.2302 32.1052 37.2597 31.7275 37.2581 31.3492C37.2484 30.9549 37.2041 30.5622 37.1257 30.1757ZM31.611 31.6316C31.5492 32.015 31.3826 32.374 31.1297 32.6688C30.8769 32.9636 30.5475 33.1829 30.1779 33.3024C29.8083 33.4219 29.4129 33.437 29.0353 33.3461C28.6577 33.2551 28.3125 33.0617 28.0379 32.787C27.7632 32.5124 27.5698 32.1672 27.4788 31.7896C27.3879 31.412 27.403 31.0166 27.5225 30.647C27.642 30.2774 27.8613 29.948 28.1561 29.6952C28.4509 29.4423 28.8099 29.2758 29.1933 29.2139C29.523 29.1644 29.8597 29.1931 30.1763 29.2976C30.4928 29.4022 30.7804 29.5797 31.0157 29.8159C31.251 30.0521 31.4274 30.3402 31.5309 30.6572C31.6343 30.9741 31.6617 31.3109 31.611 31.6404V31.6316Z" fill="url(#paint1_linear_8579_181104)"/>
<defs>
<linearGradient id="paint0_linear_8579_181104" x1="31.2146" y1="9.875" x2="6.34274" y2="30.8705" gradientUnits="userSpaceOnUse">
<stop stop-color="#A5FECA"/>
<stop offset="0.283155" stop-color="#3EDCEB"/>
<stop offset="0.623976" stop-color="#2594FF"/>
<stop offset="1" stop-color="#5533FF"/>
</linearGradient>
<linearGradient id="paint1_linear_8579_181104" x1="36.216" y1="10.0868" x2="7.56673" y2="36.4694" gradientUnits="userSpaceOnUse">
<stop stop-color="#A5FECA"/>
<stop offset="0.283155" stop-color="#3EDCEB"/>
<stop offset="0.623976" stop-color="#2594FF"/>
<stop offset="1" stop-color="#5533FF"/>
</linearGradient>
</defs>
</svg>
