<svg width="48" height="48" viewBox="0 0 48 48" fill="none" xmlns="http://www.w3.org/2000/svg">
<circle cx="24" cy="24" r="24" fill="#F7FAFD"/>
<path d="M32.2928 13.3945H29.4398C29.2506 13.3945 29.0692 13.4697 28.9355 13.6034C28.8017 13.7372 28.7266 13.9186 28.7266 14.1078V24.7638H33.0061V14.1078C33.0061 13.9186 32.9309 13.7372 32.7972 13.6034C32.6634 13.4697 32.482 13.3945 32.2928 13.3945Z" fill="url(#paint0_linear_8579_187664)"/>
<path d="M31.36 27.1532C30.5307 27.9829 29.5095 28.5951 28.387 28.9357C27.2645 29.2764 26.0753 29.3349 24.9248 29.1061C23.7742 28.8773 22.6979 28.3683 21.7911 27.6241C20.8843 26.88 20.175 25.9236 19.7261 24.8398C19.2773 23.7561 19.1026 22.5783 19.2177 21.4109C19.3328 20.2435 19.734 19.1225 20.3858 18.1472C21.0377 17.1719 21.92 16.3725 22.9546 15.8196C23.9893 15.2668 25.1443 14.9778 26.3173 14.978C26.5313 14.978 26.7382 14.978 26.945 14.978V12.125C26.7382 12.125 26.5313 12.125 26.3173 12.125C24.5105 12.1253 22.7377 12.6159 21.1877 13.5444C19.6377 14.4729 18.3687 15.8045 17.5159 17.3974C16.6631 18.9903 16.2585 20.7847 16.3451 22.5894C16.4318 24.3941 17.0065 26.1415 18.0079 27.6454L16.0465 29.6068L15.5829 29.1432C15.515 29.0774 15.4242 29.0406 15.3297 29.0406C15.2351 29.0406 15.1443 29.0774 15.0765 29.1432L9.27772 34.9491C9.14488 35.0827 9.07031 35.2635 9.07031 35.452C9.07031 35.6404 9.14488 35.8212 9.27772 35.9548L11.9667 38.6438C12.033 38.7106 12.1119 38.7637 12.1988 38.7999C12.2857 38.8361 12.3789 38.8547 12.4731 38.8547C12.5673 38.8547 12.6605 38.8361 12.7474 38.7999C12.8343 38.7637 12.9132 38.7106 12.9795 38.6438L18.7783 32.845C18.8117 32.8119 18.8382 32.7724 18.8563 32.729C18.8744 32.6855 18.8837 32.6389 18.8837 32.5918C18.8837 32.5447 18.8744 32.4981 18.8563 32.4547C18.8382 32.4112 18.8117 32.3717 18.7783 32.3386L18.3432 31.8821L20.2333 29.992C22.1509 31.4736 24.5418 32.2073 26.9603 32.0564C29.3789 31.9055 31.66 30.8802 33.3786 29.1718C34.1453 28.4071 34.7792 27.52 35.2544 26.547H31.895C31.7284 26.7591 31.5498 26.9615 31.36 27.1532ZM23.3787 19.1006C23.1896 19.1006 23.0082 19.1758 22.8744 19.3095C22.7406 19.4433 22.6655 19.6247 22.6655 19.8139V24.7638H26.945V19.8139C26.945 19.6247 26.8699 19.4433 26.7361 19.3095C26.6023 19.1758 26.4209 19.1006 26.2318 19.1006H23.3787ZM38.3571 16.9609H35.504C35.3149 16.9609 35.1335 17.036 34.9997 17.1698C34.8659 17.3035 34.7908 17.4849 34.7908 17.6741V24.7638H39.0703V17.6741C39.0703 17.4849 38.9952 17.3035 38.8614 17.1698C38.7276 17.036 38.5462 16.9609 38.3571 16.9609Z" fill="url(#paint1_linear_8579_187664)"/>
<defs>
<linearGradient id="paint0_linear_8579_187664" x1="32.8357" y1="13.7735" x2="25.3519" y2="16.7385" gradientUnits="userSpaceOnUse">
<stop stop-color="#A5FECA"/>
<stop offset="0.283155" stop-color="#3EDCEB"/>
<stop offset="0.623976" stop-color="#2594FF"/>
<stop offset="1" stop-color="#5533FF"/>
</linearGradient>
<linearGradient id="paint1_linear_8579_187664" x1="37.8756" y1="13.016" x2="12.5374" y2="42.948" gradientUnits="userSpaceOnUse">
<stop stop-color="#A5FECA"/>
<stop offset="0.283155" stop-color="#3EDCEB"/>
<stop offset="0.623976" stop-color="#2594FF"/>
<stop offset="1" stop-color="#5533FF"/>
</linearGradient>
</defs>
</svg>
