<svg width="48" height="48" viewBox="0 0 48 48" fill="none" xmlns="http://www.w3.org/2000/svg">
<circle cx="24" cy="24" r="24" fill="#F4F9FF"/>
<path d="M26.629 22.6123V21.8499C26.629 21.7488 26.5889 21.6519 26.5174 21.5804C26.4459 21.5089 26.3489 21.4688 26.2478 21.4688H22.4359C22.3348 21.4688 22.2378 21.5089 22.1663 21.5804C22.0948 21.6519 22.0547 21.7488 22.0547 21.8499V22.6123C22.0561 22.7058 22.0918 22.7956 22.1551 22.8645C22.2183 22.9333 22.3047 22.9766 22.3978 22.9859V32.1346C22.3047 32.1439 22.2183 32.1871 22.1551 32.256C22.0918 32.3249 22.0561 32.4146 22.0547 32.5081V33.2705C22.0547 33.3716 22.0948 33.4686 22.1663 33.5401C22.2378 33.6116 22.3348 33.6517 22.4359 33.6517H26.2478C26.3489 33.6517 26.4459 33.6116 26.5174 33.5401C26.5889 33.4686 26.629 33.3716 26.629 33.2705V32.5081C26.6276 32.4146 26.5919 32.3249 26.5286 32.256C26.4654 32.1871 26.379 32.1439 26.2859 32.1346V22.9859C26.379 22.9766 26.4654 22.9333 26.5286 22.8645C26.5919 22.7956 26.6276 22.7058 26.629 22.6123V22.6123Z" fill="url(#paint0_linear_8579_187659)"/>
<path d="M36.9212 35.5723H11.7624C11.5602 35.5723 11.3663 35.6526 11.2233 35.7956C11.0803 35.9386 11 36.1325 11 36.3347V38.6218C11 38.7229 11.0402 38.8199 11.1117 38.8914C11.1831 38.9629 11.2801 39.003 11.3812 39.003H37.3024C37.4035 39.003 37.5005 38.9629 37.572 38.8914C37.6435 38.8199 37.6836 38.7229 37.6836 38.6218V36.3347C37.6836 36.1325 37.6033 35.9386 37.4603 35.7956C37.3173 35.6526 37.1234 35.5723 36.9212 35.5723ZM14.4308 32.5227V33.2851C14.4308 33.3862 14.4709 33.4832 14.5424 33.5547C14.6139 33.6261 14.7109 33.6663 14.812 33.6663H18.6239C18.725 33.6663 18.822 33.6261 18.8934 33.5547C18.9649 33.4832 19.0051 33.3862 19.0051 33.2851V32.5227C19.0051 32.4216 18.9649 32.3247 18.8934 32.2532C18.822 32.1817 18.725 32.1415 18.6239 32.1415V22.9929C18.725 22.9929 18.822 22.9527 18.8934 22.8812C18.9649 22.8097 19.0051 22.7128 19.0051 22.6117V21.8493C19.0051 21.7482 18.9649 21.6512 18.8934 21.5797C18.822 21.5083 18.725 21.4681 18.6239 21.4681H14.812C14.7109 21.4681 14.6139 21.5083 14.5424 21.5797C14.4709 21.6512 14.4308 21.7482 14.4308 21.8493V22.6117C14.4308 22.7128 14.4709 22.8097 14.5424 22.8812C14.6139 22.9527 14.7109 22.9929 14.812 22.9929V32.1415C14.7109 32.1415 14.6139 32.1817 14.5424 32.2532C14.4709 32.3247 14.4308 32.4216 14.4308 32.5227ZM37.3024 16.2915L24.723 9.10214C24.6071 9.03523 24.4756 9 24.3418 9C24.208 9 24.0765 9.03523 23.9606 9.10214L11.3812 16.2915C11.2649 16.3586 11.1683 16.4554 11.1014 16.5718C11.0344 16.6883 10.9995 16.8204 11 16.9547V19.1809C11 19.282 11.0402 19.379 11.1117 19.4505C11.1831 19.522 11.2801 19.5621 11.3812 19.5621H37.3024C37.4035 19.5621 37.5005 19.522 37.572 19.4505C37.6435 19.379 37.6836 19.282 37.6836 19.1809V16.9547C37.6841 16.8204 37.6492 16.6883 37.5822 16.5718C37.5153 16.4554 37.4188 16.3586 37.3024 16.2915V16.2915ZM24.3418 17.4655C23.9075 17.4655 23.483 17.3368 23.122 17.0955C22.7609 16.8542 22.4795 16.5113 22.3133 16.1101C22.1471 15.7089 22.1036 15.2674 22.1883 14.8415C22.273 14.4156 22.4822 14.0244 22.7892 13.7173C23.0963 13.4102 23.4875 13.2011 23.9135 13.1164C24.3394 13.0317 24.7809 13.0751 25.1821 13.2413C25.5833 13.4075 25.9262 13.6889 26.1675 14.05C26.4087 14.4111 26.5375 14.8356 26.5375 15.2699C26.5375 15.8522 26.3062 16.4107 25.8944 16.8224C25.4826 17.2342 24.9241 17.4655 24.3418 17.4655V17.4655ZM29.6785 32.5227V33.2851C29.6785 33.3862 29.7187 33.4832 29.7902 33.5547C29.8617 33.6261 29.9586 33.6663 30.0597 33.6663H33.8717C33.9728 33.6663 34.0697 33.6261 34.1412 33.5547C34.2127 33.4832 34.2529 33.3862 34.2529 33.2851V32.5227C34.2529 32.4216 34.2127 32.3247 34.1412 32.2532C34.0697 32.1817 33.9728 32.1415 33.8717 32.1415V22.9929C33.9728 22.9929 34.0697 22.9527 34.1412 22.8812C34.2127 22.8097 34.2529 22.7128 34.2529 22.6117V21.8493C34.2529 21.7482 34.2127 21.6512 34.1412 21.5797C34.0697 21.5083 33.9728 21.4681 33.8717 21.4681H30.0597C29.9586 21.4681 29.8617 21.5083 29.7902 21.5797C29.7187 21.6512 29.6785 21.7482 29.6785 21.8493V22.6117C29.6788 22.6986 29.7094 22.7828 29.7651 22.8496C29.8208 22.9164 29.898 22.9616 29.9835 22.9776V32.1263C29.8926 32.143 29.8112 32.1927 29.7549 32.2659C29.6986 32.3392 29.6714 32.4306 29.6785 32.5227Z" fill="url(#paint1_linear_8579_187659)"/>
<defs>
<linearGradient id="paint0_linear_8579_187659" x1="26.4469" y1="21.8748" x2="18.4421" y2="25.0383" gradientUnits="userSpaceOnUse">
<stop stop-color="#A5FECA"/>
<stop offset="0.283155" stop-color="#3EDCEB"/>
<stop offset="0.623976" stop-color="#2594FF"/>
<stop offset="1" stop-color="#5533FF"/>
</linearGradient>
<linearGradient id="paint1_linear_8579_187659" x1="36.621" y1="10.0001" x2="7.84701" y2="36.9349" gradientUnits="userSpaceOnUse">
<stop stop-color="#A5FECA"/>
<stop offset="0.283155" stop-color="#3EDCEB"/>
<stop offset="0.623976" stop-color="#2594FF"/>
<stop offset="1" stop-color="#5533FF"/>
</linearGradient>
</defs>
</svg>
