<svg width="50" height="48" viewBox="0 0 50 48" fill="none" xmlns="http://www.w3.org/2000/svg">
<ellipse cx="24.8312" cy="24" rx="24.8312" ry="24" fill="#F4F9FF"/>
<g clip-path="url(#clip0_8579_188592)">
<path d="M37.9009 10.1445L10.3642 21.7468C10.0607 21.8746 9.80096 22.0829 9.61499 22.3475C9.42901 22.6122 9.32446 22.9224 9.31347 23.2422C9.30247 23.562 9.38547 23.8782 9.55285 24.1542C9.72023 24.4303 9.96513 24.6548 10.2592 24.8018L15.8453 27.586L32.4811 16.4069C32.515 16.3813 32.5558 16.3655 32.5986 16.3613C32.6414 16.3572 32.6846 16.3649 32.7231 16.3835C32.7616 16.4021 32.7938 16.4308 32.8161 16.4664C32.8383 16.502 32.8497 16.543 32.8489 16.5846L18.9448 29.4647C18.773 29.623 18.6363 29.8134 18.543 30.0243C18.4497 30.2353 18.4017 30.4623 18.402 30.6918V36.6156C18.3995 36.986 18.5228 37.3469 18.753 37.643C18.9831 37.9392 19.3075 38.1541 19.6762 38.255C20.0449 38.3559 20.4377 38.337 20.7943 38.2014C21.1509 38.0658 21.4516 37.8209 21.6503 37.5042L25.03 32.1558L32.1834 35.7186C32.4187 35.836 32.6784 35.9003 32.9431 35.9067C33.2078 35.9131 33.4705 35.8615 33.7116 35.7556C33.9526 35.6497 34.1657 35.4923 34.3347 35.2954C34.5038 35.0984 34.6244 34.8669 34.6876 34.6184L40.3087 12.0994C40.3875 11.7921 40.3755 11.4697 40.2741 11.1687C40.1727 10.8677 39.986 10.6002 39.7353 10.3966C39.4845 10.1929 39.1796 10.0614 38.8554 10.0168C38.5311 9.9723 38.2005 10.0165 37.9009 10.1445Z" fill="url(#paint0_linear_8579_188592)"/>
</g>
<defs>
<linearGradient id="paint0_linear_8579_188592" x1="39.1237" y1="10.944" x2="12.1821" y2="42.0329" gradientUnits="userSpaceOnUse">
<stop stop-color="#A5FECA"/>
<stop offset="0.283155" stop-color="#3EDCEB"/>
<stop offset="0.623976" stop-color="#2594FF"/>
<stop offset="1" stop-color="#5533FF"/>
</linearGradient>
<clipPath id="clip0_8579_188592">
<rect width="31.039" height="28.3159" fill="white" transform="translate(9.3125 10)"/>
</clipPath>
</defs>
</svg>
