<svg width="48" height="48" viewBox="0 0 48 48" fill="none" xmlns="http://www.w3.org/2000/svg">
<circle cx="24" cy="24" r="24" fill="#F7FAFD"/>
<path d="M18.3436 28.3651C18.3133 28.2795 18.2573 28.2054 18.1832 28.153C18.1092 28.1005 18.0207 28.0723 17.9299 28.0721H15.8184C14.9297 28.0732 14.0499 28.2497 13.2294 28.5914C12.409 28.933 11.664 29.4332 11.0371 30.0633C10.4103 30.6933 9.91392 31.4408 9.57642 32.263C9.23893 33.0852 9.06696 33.9659 9.07036 34.8546V37.8538C9.07934 38.1144 9.1898 38.3612 9.37818 38.5415C9.56655 38.7218 9.81793 38.8214 10.0787 38.819H21.1359C21.2005 38.8203 21.2646 38.8071 21.3234 38.7803C21.3822 38.7534 21.4342 38.7137 21.4756 38.6641C21.517 38.6144 21.5467 38.5561 21.5625 38.4934C21.5782 38.4307 21.5797 38.3653 21.5668 38.3019L18.3436 28.3651ZM32.3395 28.0721H30.2108C30.1212 28.0728 30.0341 28.1014 29.9615 28.1539C29.8889 28.2064 29.8345 28.2802 29.8058 28.3651L26.5826 38.3019C26.5604 38.366 26.554 38.4345 26.5639 38.5016C26.5739 38.5686 26.5998 38.6324 26.6395 38.6873C26.6792 38.7422 26.7316 38.7868 26.7922 38.8172C26.8528 38.8477 26.9198 38.8631 26.9876 38.8621H38.062C38.328 38.8621 38.5831 38.7571 38.772 38.5698C38.9608 38.3826 39.0681 38.1283 39.0704 37.8624V34.8546C39.0738 33.9673 38.9024 33.0881 38.5659 32.267C38.2295 31.4459 37.7347 30.6992 37.1097 30.0694C36.4847 29.4395 35.7417 28.939 34.9232 28.5963C34.1048 28.2536 33.2268 28.0755 32.3395 28.0721ZM32.3395 17.2821C32.3395 15.6441 31.8538 14.0428 30.9438 12.6808C30.0337 11.3188 28.7402 10.2573 27.2269 9.63044C25.7135 9.00359 24.0482 8.83958 22.4417 9.15914C20.8351 9.47871 19.3594 10.2675 18.2011 11.4258C17.0428 12.584 16.254 14.0598 15.9345 15.6663C15.6149 17.2729 15.7789 18.9382 16.4058 20.4515C17.0326 21.9649 18.0942 23.2584 19.4561 24.1684C20.8181 25.0785 22.4194 25.5642 24.0574 25.5642C26.254 25.5642 28.3606 24.6916 29.9138 23.1384C31.467 21.5852 32.3395 19.4787 32.3395 17.2821Z" fill="url(#paint0_linear_8579_187670)"/>
<path d="M24.0662 28.3047C23.7233 28.3047 23.3945 28.4409 23.1521 28.6833C22.9096 28.9258 22.7734 29.2546 22.7734 29.5974V36.492C22.7734 36.8348 22.9096 37.1637 23.1521 37.4061C23.3945 37.6485 23.7233 37.7847 24.0662 37.7847C24.409 37.7847 24.7378 37.6485 24.9803 37.4061C25.2227 37.1637 25.3589 36.8348 25.3589 36.492V29.5974C25.3589 29.2546 25.2227 28.9258 24.9803 28.6833C24.7378 28.4409 24.409 28.3047 24.0662 28.3047Z" fill="url(#paint1_linear_8579_187670)"/>
<defs>
<linearGradient id="paint0_linear_8579_187670" x1="37.8757" y1="9.9954" x2="9.21896" y2="40.2968" gradientUnits="userSpaceOnUse">
<stop stop-color="#A5FECA"/>
<stop offset="0.283155" stop-color="#3EDCEB"/>
<stop offset="0.623976" stop-color="#2594FF"/>
<stop offset="1" stop-color="#5533FF"/>
</linearGradient>
<linearGradient id="paint1_linear_8579_187670" x1="25.2559" y1="28.6207" x2="20.4232" y2="30.0079" gradientUnits="userSpaceOnUse">
<stop stop-color="#A5FECA"/>
<stop offset="0.283155" stop-color="#3EDCEB"/>
<stop offset="0.623976" stop-color="#2594FF"/>
<stop offset="1" stop-color="#5533FF"/>
</linearGradient>
</defs>
</svg>
