<svg width="48" height="48" viewBox="0 0 48 48" fill="none" xmlns="http://www.w3.org/2000/svg">
<circle cx="24" cy="24" r="24" fill="#F4F9FF"/>
<path d="M38.918 19.9429L33.4035 14.0978C33.3728 14.0668 33.3362 14.0422 33.2959 14.0254C33.2556 14.0086 33.2124 14 33.1688 14C33.1251 14 33.0819 14.0086 33.0416 14.0254C33.0013 14.0422 32.9648 14.0668 32.934 14.0978L30.6198 16.2798C30.589 16.3099 30.5646 16.3459 30.5479 16.3857C30.5312 16.4254 30.5226 16.4681 30.5226 16.5112C30.5226 16.5543 30.5312 16.597 30.5479 16.6367C30.5646 16.6764 30.589 16.7125 30.6198 16.7426L36.1078 22.5877C36.1386 22.6187 36.1751 22.6433 36.2154 22.6601C36.2557 22.6768 36.2989 22.6855 36.3426 22.6855C36.3862 22.6855 36.4294 22.6768 36.4697 22.6601C36.51 22.6433 36.5466 22.6187 36.5773 22.5877L38.8915 20.4057C38.9557 20.3474 38.9945 20.2663 38.9995 20.1797C39.0044 20.0931 38.9751 20.0081 38.918 19.9429ZM36.9343 20.6041C36.7981 20.7393 36.6139 20.8152 36.4219 20.8152C36.2299 20.8152 36.0457 20.7393 35.9095 20.6041C35.8095 20.503 35.7416 20.3745 35.7145 20.2349C35.6873 20.0954 35.702 19.9509 35.7568 19.8196C35.8116 19.6884 35.904 19.5763 36.0223 19.4975C36.1407 19.4186 36.2797 19.3766 36.4219 19.3766C36.5641 19.3766 36.7031 19.4186 36.8215 19.4975C36.9398 19.5763 37.0322 19.6884 37.087 19.8196C37.1418 19.9509 37.1565 20.0954 37.1293 20.2349C37.1022 20.3745 37.0343 20.503 36.9343 20.6041ZM14.6781 14.8979C14.6088 14.8445 14.5211 14.8209 14.4344 14.832C14.3476 14.8432 14.2688 14.8882 14.2153 14.9574L9.07106 21.5694C9.01701 21.6379 8.99223 21.7251 9.00214 21.8118C9.01205 21.8985 9.05584 21.9777 9.12396 22.0323L11.6498 24.0159C11.7183 24.07 11.8054 24.0947 11.8921 24.0848C11.9788 24.0749 12.0581 24.0311 12.1126 23.963L17.2634 17.298C17.2907 17.2641 17.3108 17.2249 17.3226 17.183C17.3344 17.1411 17.3376 17.0972 17.3321 17.054C17.3265 17.0108 17.3123 16.9691 17.2903 16.9315C17.2683 16.8939 17.2389 16.8612 17.2039 16.8352L14.6781 14.8979ZM12.2581 21.8009C12.1699 21.9123 12.0507 21.9952 11.9155 22.0392C11.7804 22.0831 11.6352 22.086 11.4983 22.0477C11.3615 22.0093 11.239 21.9314 11.1463 21.8236C11.0537 21.7158 10.995 21.583 10.9775 21.442C10.9601 21.3009 10.9848 21.1578 11.0485 21.0308C11.1122 20.9037 11.2121 20.7983 11.3355 20.7278C11.4589 20.6574 11.6005 20.6249 11.7423 20.6347C11.8841 20.6444 12.0198 20.6959 12.1325 20.7826C12.2837 20.9013 12.3819 21.075 12.4054 21.2658C12.4289 21.4566 12.376 21.649 12.2581 21.8009Z" fill="url(#paint0_linear_8579_187652)"/>
<path d="M31.4053 28.2224L25.752 23.8055L24.7205 24.751C23.7192 25.7569 22.3762 26.3493 20.9582 26.4107C20.7168 26.4107 20.4757 26.3908 20.2375 26.3512C19.6894 26.2489 19.1696 26.03 18.7133 25.7095C18.257 25.389 17.8748 24.9742 17.5927 24.4932C17.3535 24.0992 17.259 23.6342 17.3253 23.1781C17.3917 22.722 17.6148 22.3033 17.9564 21.9938L22.0228 18.2977C21.4673 17.8718 20.7657 17.6835 20.0717 17.7739C19.3776 17.8644 18.7477 18.2263 18.32 18.7803L14.3263 23.9113C14.0014 24.3248 13.8539 24.8504 13.9164 25.3726L14.1743 27.4554C14.2058 27.7141 14.2881 27.964 14.4163 28.1909C14.5445 28.4178 14.7161 28.6173 14.9214 28.7778L21.8773 34.1997C22.0657 34.3478 22.299 34.4271 22.5385 34.4245C22.6869 34.4245 22.8337 34.3934 22.9692 34.333C23.1048 34.2726 23.2261 34.1844 23.3254 34.0741L23.6361 33.7368C23.7348 33.6307 23.8109 33.5057 23.8599 33.3693C23.9089 33.233 23.9296 33.0881 23.921 32.9434C23.9123 32.7988 23.8744 32.6574 23.8096 32.5278C23.7447 32.3983 23.6542 32.2832 23.5436 32.1896L24.6941 33.1682C24.8805 33.3231 25.1131 33.4115 25.3553 33.4195C25.6315 33.4208 25.8973 33.314 26.0958 33.1219L26.4595 32.7715C26.5675 32.6675 26.6523 32.5419 26.7084 32.4029C26.7645 32.2638 26.7906 32.1145 26.7849 31.9647C26.7793 31.8149 26.7421 31.668 26.6758 31.5335C26.6095 31.3991 26.5155 31.2802 26.4 31.1846L27.2596 31.9053C27.466 32.0809 27.731 32.1724 28.0018 32.1613C28.2726 32.1503 28.5294 32.0376 28.7208 31.8458L29.0382 31.535C29.1428 31.4317 29.225 31.3078 29.2797 31.1713C29.3344 31.0348 29.3604 30.8884 29.3561 30.7414C29.3517 30.5944 29.3171 30.4499 29.2545 30.3168C29.1918 30.1837 29.1025 30.065 28.9919 29.968L29.5606 30.4639C29.6677 30.5563 29.7921 30.6264 29.9266 30.6702C30.0611 30.7139 30.203 30.7305 30.344 30.7188C30.485 30.7071 30.6222 30.6674 30.7477 30.6021C30.8731 30.5367 30.9843 30.447 31.0747 30.3382L31.5706 29.7432C31.6618 29.6334 31.73 29.5064 31.7712 29.3698C31.8124 29.2331 31.8256 29.0896 31.8102 28.9477C31.7948 28.8059 31.751 28.6685 31.6814 28.5439C31.6119 28.4193 31.518 28.31 31.4053 28.2224ZM34.1692 22.9327L29.3953 18.0596C29.1876 17.8488 28.9152 17.7138 28.6216 17.6761L26.1884 17.3587C25.9986 17.334 25.8058 17.3508 25.6231 17.4079C25.4405 17.4649 25.2724 17.561 25.1305 17.6893L24.5552 18.2117L19.054 23.2104C18.9933 23.2576 18.9522 23.3257 18.9388 23.4014C18.9254 23.4771 18.9405 23.5552 18.9812 23.6204L19.0143 23.6799C19.1799 23.9547 19.4036 24.19 19.6698 24.3694C19.9359 24.5487 20.238 24.6677 20.5549 24.718C21.5071 24.8833 22.5385 24.4733 23.6229 23.5212L25.6793 21.6434L32.1393 26.695L34.1229 24.8039C34.2489 24.6842 34.3501 24.5408 34.4207 24.3819C34.4912 24.223 34.5297 24.0517 34.534 23.8779C34.5383 23.7041 34.5083 23.5312 34.4457 23.369C34.3831 23.2068 34.2891 23.0585 34.1692 22.9327Z" fill="url(#paint1_linear_8579_187652)"/>
<defs>
<linearGradient id="paint0_linear_8579_187652" x1="37.8053" y1="14.3362" x2="32.1848" y2="31.9305" gradientUnits="userSpaceOnUse">
<stop stop-color="#A5FECA"/>
<stop offset="0.283155" stop-color="#3EDCEB"/>
<stop offset="0.623976" stop-color="#2594FF"/>
<stop offset="1" stop-color="#5533FF"/>
</linearGradient>
<linearGradient id="paint1_linear_8579_187652" x1="33.7128" y1="17.9169" x2="17.7625" y2="38.2001" gradientUnits="userSpaceOnUse">
<stop stop-color="#A5FECA"/>
<stop offset="0.283155" stop-color="#3EDCEB"/>
<stop offset="0.623976" stop-color="#2594FF"/>
<stop offset="1" stop-color="#5533FF"/>
</linearGradient>
</defs>
</svg>
