<svg width="36" height="37" viewBox="0 0 36 37" fill="none" xmlns="http://www.w3.org/2000/svg">
<circle cx="18" cy="18.8965" r="18" fill="#F4F9FF"/>
<g clip-path="url(#clip0_10314_208444)">
<path d="M8.94512 11.3416H25.4085V10.244C25.4085 9.95295 25.2929 9.67379 25.0871 9.46795C24.8812 9.26212 24.6021 9.14648 24.311 9.14648H7.84756C7.55647 9.14648 7.2773 9.26212 7.07147 9.46795C6.86564 9.67379 6.75 9.95295 6.75 10.244V22.866C6.75 23.1571 6.86564 23.4363 7.07147 23.6421C7.2773 23.8479 7.55647 23.9636 7.84756 23.9636H14.3396L13.9774 26.1587H11.9634C11.7451 26.1587 11.5357 26.2454 11.3813 26.3998C11.227 26.5542 11.1402 26.7635 11.1402 26.9818C11.1402 27.2002 11.227 27.4095 11.3813 27.5639C11.5357 27.7183 11.7451 27.805 11.9634 27.805H17.4512V21.7684H8.94512V11.3416ZM27.0549 12.7136H21.0183C20.4361 12.7136 19.8778 12.9448 19.4661 13.3565C19.0544 13.7682 18.8232 14.3265 18.8232 14.9087V26.9818C18.8232 27.564 19.0544 28.1224 19.4661 28.534C19.8778 28.9457 20.4361 29.177 21.0183 29.177H27.0549C27.6371 29.177 28.1954 28.9457 28.6071 28.534C29.0187 28.1224 29.25 27.564 29.25 26.9818V14.9087C29.25 14.3265 29.0187 13.7682 28.6071 13.3565C28.1954 12.9448 27.6371 12.7136 27.0549 12.7136ZM24.4482 27.805H23.625C23.4067 27.805 23.1973 27.7183 23.0429 27.5639C22.8886 27.4095 22.8018 27.2002 22.8018 26.9818C22.8018 26.7635 22.8886 26.5542 23.0429 26.3998C23.1973 26.2454 23.4067 26.1587 23.625 26.1587H24.4482C24.6665 26.1587 24.8759 26.2454 25.0302 26.3998C25.1846 26.5542 25.2713 26.7635 25.2713 26.9818C25.2713 27.2002 25.1846 27.4095 25.0302 27.5639C24.8759 27.7183 24.6665 27.805 24.4482 27.805ZM27.5049 24.452C27.5049 24.5975 27.4471 24.7371 27.3441 24.84C27.2412 24.9429 27.1016 25.0008 26.9561 25.0008H21.1171C20.9715 25.0008 20.8319 24.9429 20.729 24.84C20.6261 24.7371 20.5683 24.5975 20.5683 24.452V15.5892C20.5683 15.4436 20.6261 15.304 20.729 15.2011C20.8319 15.0982 20.9715 15.0404 21.1171 15.0404H26.9561C27.1016 15.0404 27.2412 15.0982 27.3441 15.2011C27.4471 15.304 27.5049 15.4436 27.5049 15.5892V24.452Z" fill="url(#paint0_linear_10314_208444)"/>
<path d="M16.7706 13.5371H16.1505C16.069 13.5371 15.9908 13.5695 15.9332 13.6271C15.8755 13.6848 15.8432 13.7629 15.8432 13.8444V14.2999C15.8414 14.3681 15.8182 14.434 15.7768 14.4882C15.7354 14.5424 15.678 14.5821 15.6127 14.6017C15.4629 14.6465 15.3178 14.7053 15.1791 14.7774C15.122 14.8097 15.056 14.8229 14.9908 14.815C14.9256 14.8071 14.8647 14.7785 14.8169 14.7335L14.4932 14.4042C14.4346 14.3465 14.3558 14.3142 14.2737 14.3142C14.1915 14.3142 14.1127 14.3465 14.0541 14.4042L13.6151 14.8432C13.5575 14.9017 13.5252 14.9806 13.5252 15.0627C13.5252 15.1449 13.5575 15.2237 13.6151 15.2822L13.9389 15.606C13.9861 15.6535 14.0164 15.7152 14.0253 15.7816C14.0343 15.8479 14.0212 15.9154 13.9883 15.9737C13.9156 16.1128 13.8551 16.2578 13.8072 16.4072C13.7876 16.4711 13.7485 16.5272 13.6953 16.5675C13.6421 16.6079 13.5776 16.6306 13.5109 16.6322H13.0554C13.015 16.6322 12.975 16.6402 12.9378 16.6556C12.9005 16.6711 12.8666 16.6937 12.8381 16.7222C12.8095 16.7508 12.7869 16.7847 12.7714 16.8219C12.756 16.8592 12.748 16.8992 12.748 16.9395V17.5597C12.748 17.6417 12.7802 17.7204 12.8377 17.7789C12.8952 17.8374 12.9734 17.871 13.0554 17.8725H13.5109C13.5776 17.8742 13.6421 17.8968 13.6953 17.9372C13.7485 17.9775 13.7876 18.0336 13.8072 18.0975C13.8551 18.2469 13.9156 18.3919 13.9883 18.531C14.0212 18.5893 14.0343 18.6568 14.0253 18.7231C14.0164 18.7895 13.9861 18.8512 13.9389 18.8987L13.6151 19.2225C13.5575 19.281 13.5252 19.3598 13.5252 19.442C13.5252 19.5241 13.5575 19.603 13.6151 19.6615L14.0541 20.095C14.1127 20.1527 14.1915 20.185 14.2737 20.185C14.3558 20.185 14.4346 20.1527 14.4932 20.095L14.8169 19.7713C14.8645 19.7261 14.9251 19.697 14.9901 19.6881C15.0551 19.6793 15.1212 19.6911 15.1791 19.7219C15.3187 19.7934 15.4637 19.854 15.6127 19.903C15.678 19.9226 15.7354 19.9623 15.7768 20.0165C15.8182 20.0707 15.8414 20.1366 15.8432 20.2048V20.6713C15.8424 20.7121 15.8498 20.7526 15.865 20.7905C15.8801 20.8285 15.9026 20.863 15.9312 20.8921C15.9598 20.9212 15.994 20.9444 16.0316 20.9602C16.0692 20.9759 16.1097 20.9841 16.1505 20.9841H16.7706C16.8114 20.9841 16.8518 20.9759 16.8895 20.9602C16.9271 20.9444 16.9613 20.9212 16.9899 20.8921C17.0185 20.863 17.041 20.8285 17.0561 20.7905C17.0712 20.7526 17.0787 20.7121 17.0779 20.6713V18.6682C16.8844 18.7543 16.6751 18.7992 16.4633 18.7999C16.0529 18.7999 15.6592 18.6369 15.369 18.3466C15.0788 18.0564 14.9157 17.6628 14.9157 17.2524C14.9157 16.8419 15.0788 16.4483 15.369 16.1581C15.6592 15.8678 16.0529 15.7048 16.4633 15.7048C16.6751 15.7056 16.8844 15.7504 17.0779 15.8365V13.8444C17.0779 13.7629 17.0455 13.6848 16.9879 13.6271C16.9303 13.5695 16.8521 13.5371 16.7706 13.5371ZM25.5511 19.3761H25.0956C25.0289 19.3745 24.9643 19.3518 24.9111 19.3114C24.858 19.2711 24.8188 19.215 24.7993 19.1511C24.7514 19.0017 24.6908 18.8567 24.6182 18.7176C24.5852 18.6593 24.5722 18.5918 24.5811 18.5255C24.59 18.4591 24.6204 18.3974 24.6676 18.3499L24.9913 18.0261C25.049 17.9676 25.0813 17.8888 25.0813 17.8066C25.0813 17.7245 25.049 17.6456 24.9913 17.5871L24.5523 17.1481C24.4938 17.0904 24.4149 17.0581 24.3328 17.0581C24.2507 17.0581 24.1718 17.0904 24.1133 17.1481L23.7895 17.4774C23.7417 17.5224 23.6808 17.551 23.6156 17.5589C23.5505 17.5668 23.4845 17.5536 23.4273 17.5213C23.2887 17.4492 23.1435 17.3904 22.9938 17.3456C22.9285 17.326 22.871 17.2863 22.8296 17.2321C22.7882 17.1779 22.765 17.112 22.7633 17.0438V16.5883C22.7633 16.5068 22.7309 16.4287 22.6733 16.371C22.6156 16.3134 22.5375 16.281 22.456 16.281H21.8359C21.7543 16.281 21.6762 16.3134 21.6185 16.371C21.5609 16.4287 21.5285 16.5068 21.5285 16.5883V18.5804C21.7241 18.5037 21.9333 18.4682 22.1432 18.4761C22.5536 18.4761 22.9472 18.6392 23.2375 18.9294C23.5277 19.2196 23.6907 19.6133 23.6907 20.0237C23.6907 20.4341 23.5277 20.8278 23.2375 21.118C22.9472 21.4082 22.5536 21.5713 22.1432 21.5713C21.9314 21.5705 21.722 21.5256 21.5285 21.4395V23.4152C21.5278 23.456 21.5352 23.4965 21.5503 23.5344C21.5655 23.5724 21.588 23.6069 21.6166 23.636C21.6452 23.6651 21.6793 23.6883 21.717 23.7041C21.7546 23.7198 21.795 23.728 21.8359 23.728H22.456C22.4968 23.728 22.5372 23.7198 22.5749 23.7041C22.6125 23.6883 22.6466 23.6651 22.6752 23.636C22.7039 23.6069 22.7264 23.5724 22.7415 23.5344C22.7566 23.4965 22.764 23.456 22.7633 23.4152V22.9652C22.765 22.897 22.7882 22.8311 22.8296 22.7769C22.871 22.7227 22.9285 22.683 22.9938 22.6633C23.1428 22.6144 23.2877 22.5538 23.4273 22.4822C23.4852 22.4514 23.5514 22.4397 23.6164 22.4485C23.6814 22.4574 23.7419 22.4864 23.7895 22.5316L24.1133 22.8554C24.1718 22.913 24.2507 22.9454 24.3328 22.9454C24.4149 22.9454 24.4938 22.913 24.5523 22.8554L24.9913 22.4219C25.049 22.3633 25.0813 22.2845 25.0813 22.2024C25.0813 22.1202 25.049 22.0414 24.9913 21.9828L24.6676 21.6591C24.6204 21.6115 24.59 21.5499 24.5811 21.4835C24.5722 21.4171 24.5852 21.3497 24.6182 21.2914C24.6908 21.1523 24.7514 21.0073 24.7993 20.8578C24.8188 20.794 24.858 20.7379 24.9111 20.6975C24.9643 20.6572 25.0289 20.6345 25.0956 20.6328H25.5511C25.6331 20.6314 25.7113 20.5978 25.7687 20.5393C25.8262 20.4808 25.8584 20.4021 25.8584 20.32V19.6835C25.8584 19.6019 25.826 19.5238 25.7684 19.4661C25.7108 19.4085 25.6326 19.3761 25.5511 19.3761Z" fill="url(#paint1_linear_10314_208444)"/>
</g>
<defs>
<linearGradient id="paint0_linear_10314_208444" x1="28.354" y1="9.81417" x2="9.3689" y2="32.2601" gradientUnits="userSpaceOnUse">
<stop stop-color="#A5FECA"/>
<stop offset="0.283155" stop-color="#3EDCEB"/>
<stop offset="0.623976" stop-color="#2594FF"/>
<stop offset="1" stop-color="#5533FF"/>
</linearGradient>
<linearGradient id="paint1_linear_10314_208444" x1="25.3363" y1="13.8768" x2="15.9749" y2="26.5527" gradientUnits="userSpaceOnUse">
<stop stop-color="#A5FECA"/>
<stop offset="0.283155" stop-color="#3EDCEB"/>
<stop offset="0.623976" stop-color="#2594FF"/>
<stop offset="1" stop-color="#5533FF"/>
</linearGradient>
<clipPath id="clip0_10314_208444">
<rect width="22.5" height="20.0305" fill="white" transform="translate(6.75 9.14648)"/>
</clipPath>
</defs>
</svg>
