<svg width="16" height="16" viewBox="0 0 16 16" fill="none" xmlns="http://www.w3.org/2000/svg">
<g clip-path="url(#clip0_9879_80691)">
<path d="M15.1702 2H14.339C13.8799 2 13.5078 2.37213 13.5078 2.83117V13.6364C13.5078 14.0954 13.8799 14.4675 14.339 14.4675H15.1702C15.6292 14.4675 16.0013 14.0954 16.0013 13.6364V2.83117C16.0013 2.37213 15.6292 2 15.1702 2Z" fill="url(#paint0_linear_9879_80691)"/>
<path d="M12.2016 3.19778L2.85091 5.82843C2.80775 5.84102 2.76983 5.86726 2.74286 5.90323C2.71588 5.9392 2.7013 5.98295 2.7013 6.02791V10.99V12.6523C2.70173 12.9805 2.81844 13.2979 3.03071 13.5482C3.24297 13.7986 3.53707 13.9656 3.86078 14.0196L6.90701 14.5266C6.98252 14.5397 7.05896 14.5467 7.13558 14.5474C7.503 14.5463 7.85499 14.3996 8.1144 14.1394C8.37381 13.8792 8.51948 13.5268 8.51948 13.1593V12.5775L12.2057 13.5791C12.2367 13.5866 12.269 13.587 12.3001 13.5803C12.3313 13.5736 12.3606 13.56 12.3857 13.5404C12.4109 13.5208 12.4313 13.4958 12.4455 13.4673C12.4596 13.4387 12.4672 13.4073 12.4675 13.3754V3.40141C12.4682 3.36881 12.4612 3.3365 12.447 3.30711C12.4329 3.27773 12.412 3.25208 12.3861 3.23226C12.3602 3.21243 12.33 3.19898 12.2979 3.19299C12.2659 3.187 12.2329 3.18864 12.2016 3.19778ZM7.27273 13.1469C7.27338 13.1675 7.26921 13.188 7.26055 13.2068C7.2519 13.2255 7.23899 13.242 7.22286 13.2549C7.20727 13.2674 7.18922 13.2765 7.16987 13.2815C7.15053 13.2865 7.13035 13.2874 7.11065 13.284L4.06442 12.777C4.03175 12.772 4.00199 12.7554 3.98061 12.7302C3.95923 12.705 3.94767 12.6729 3.94805 12.6399V11.3266L7.27273 12.2284V13.1469ZM1.45455 6.15674H0.831169C0.610729 6.15674 0.399318 6.24431 0.243444 6.40018C0.0875693 6.55606 0 6.76747 0 6.98791L0 9.897C0 10.1174 0.0875693 10.3288 0.243444 10.4847C0.399318 10.6406 0.610729 10.7282 0.831169 10.7282H1.45455C1.50966 10.7282 1.56251 10.7063 1.60148 10.6673C1.64045 10.6283 1.66234 10.5755 1.66234 10.5204V6.36453C1.66234 6.30942 1.64045 6.25657 1.60148 6.2176C1.56251 6.17863 1.50966 6.15674 1.45455 6.15674Z" fill="url(#paint1_linear_9879_80691)"/>
</g>
<defs>
<linearGradient id="paint0_linear_9879_80691" x1="15.902" y1="2.41558" x2="11.0712" y2="3.43251" gradientUnits="userSpaceOnUse">
<stop stop-color="#A5FECA"/>
<stop offset="0.283155" stop-color="#3EDCEB"/>
<stop offset="0.623976" stop-color="#2594FF"/>
<stop offset="1" stop-color="#5533FF"/>
</linearGradient>
<linearGradient id="paint1_linear_9879_80691" x1="11.9711" y1="3.56805" x2="1.16748" y2="16.0501" gradientUnits="userSpaceOnUse">
<stop stop-color="#A5FECA"/>
<stop offset="0.283155" stop-color="#3EDCEB"/>
<stop offset="0.623976" stop-color="#2594FF"/>
<stop offset="1" stop-color="#5533FF"/>
</linearGradient>
<clipPath id="clip0_9879_80691">
<rect width="16" height="12.534" fill="white" transform="translate(0 2)"/>
</clipPath>
</defs>
</svg>
