<svg width="16" height="16" viewBox="0 0 16 16" fill="none" xmlns="http://www.w3.org/2000/svg">
<path d="M13.0087 3.65625H2.42341C2.31112 3.65625 2.20342 3.70086 2.12401 3.78026C2.04461 3.85967 2 3.96737 2 4.07966V15.5118C2 15.6241 2.04461 15.7318 2.12401 15.8112C2.20342 15.8906 2.31112 15.9352 2.42341 15.9352H13.0087C13.121 15.9352 13.2287 15.8906 13.3081 15.8112C13.3875 15.7318 13.4321 15.6241 13.4321 15.5118V4.07966C13.4321 3.96737 13.3875 3.85967 13.3081 3.78026C13.2287 3.70086 13.121 3.65625 13.0087 3.65625ZM4.22292 5.70557H6.86924C7.00961 5.70557 7.14424 5.76133 7.24349 5.86058C7.34275 5.95984 7.39851 6.09446 7.39851 6.23483C7.39851 6.3752 7.34275 6.50982 7.24349 6.60908C7.14424 6.70834 7.00961 6.7641 6.86924 6.7641H4.22292C4.08255 6.7641 3.94793 6.70834 3.84867 6.60908C3.74941 6.50982 3.69365 6.3752 3.69365 6.23483C3.69365 6.09446 3.74941 5.95984 3.84867 5.86058C3.94793 5.76133 4.08255 5.70557 4.22292 5.70557ZM4.22292 8.20794H6.86924C7.00961 8.20794 7.14424 8.2637 7.24349 8.36295C7.34275 8.46221 7.39851 8.59683 7.39851 8.7372C7.39851 8.87757 7.34275 9.01219 7.24349 9.11145C7.14424 9.2107 7.00961 9.26647 6.86924 9.26647H4.22292C4.08255 9.26647 3.94793 9.2107 3.84867 9.11145C3.74941 9.01219 3.69365 8.87757 3.69365 8.7372C3.69365 8.59683 3.74941 8.46221 3.84867 8.36295C3.94793 8.2637 4.08255 8.20794 4.22292 8.20794ZM10.68 14.3389H4.22292C4.08255 14.3389 3.94793 14.2832 3.84867 14.1839C3.74941 14.0847 3.69365 13.9501 3.69365 13.8097C3.69365 13.6693 3.74941 13.5347 3.84867 13.4354C3.94793 13.3362 4.08255 13.2804 4.22292 13.2804H10.68C10.8203 13.2804 10.9549 13.3362 11.0542 13.4354C11.1535 13.5347 11.2092 13.6693 11.2092 13.8097C11.2092 13.9501 11.1535 14.0847 11.0542 14.1839C10.9549 14.2832 10.8203 14.3389 10.68 14.3389ZM10.68 11.7985H4.22292C4.08255 11.7985 3.94793 11.7427 3.84867 11.6435C3.74941 11.5442 3.69365 11.4096 3.69365 11.2692C3.69365 11.1288 3.74941 10.9942 3.84867 10.895C3.94793 10.7957 4.08255 10.7399 4.22292 10.7399H10.68C10.8203 10.7399 10.9549 10.7957 11.0542 10.895C11.1535 10.9942 11.2092 11.1288 11.2092 11.2692C11.2092 11.4096 11.1535 11.5442 11.0542 11.6435C10.9549 11.7427 10.8203 11.7985 10.68 11.7985ZM11.3151 8.5636C11.3151 8.6759 11.2705 8.78359 11.1911 8.863C11.1117 8.9424 11.004 8.98701 10.8917 8.98701H9.19801C9.08572 8.98701 8.97802 8.9424 8.89862 8.863C8.81921 8.78359 8.7746 8.6759 8.7746 8.5636V6.23483C8.7746 6.12254 8.81921 6.01484 8.89862 5.93543C8.97802 5.85603 9.08572 5.81142 9.19801 5.81142H10.8917C11.004 5.81142 11.1117 5.85603 11.1911 5.93543C11.2705 6.01484 11.3151 6.12254 11.3151 6.23483V8.5636Z" fill="url(#paint0_linear_9879_80647)"/>
<path d="M11.6535 0.0085724L2.26641 1.96474C2.18537 1.98694 2.11496 2.03744 2.06795 2.10708C2.02095 2.17673 2.00045 2.26091 2.01018 2.34438C2.01991 2.42784 2.05922 2.50505 2.12098 2.56202C2.18275 2.61899 2.26288 2.65194 2.34686 2.6549H11.7381C11.8504 2.6549 11.9581 2.61029 12.0375 2.53089C12.117 2.45148 12.1616 2.34378 12.1616 2.23149V0.431985C12.1628 0.368481 12.1498 0.305501 12.1235 0.247711C12.0971 0.189921 12.0581 0.138801 12.0093 0.098138C11.9605 0.0574753 11.9032 0.0283118 11.8416 0.0128076C11.78 -0.00269658 11.7157 -0.00414405 11.6535 0.0085724Z" fill="url(#paint1_linear_9879_80647)"/>
<defs>
<linearGradient id="paint0_linear_9879_80647" x1="12.9769" y1="4.06555" x2="1.17763" y2="15.6281" gradientUnits="userSpaceOnUse">
<stop stop-color="#A5FECA"/>
<stop offset="0.283155" stop-color="#3EDCEB"/>
<stop offset="0.623976" stop-color="#2594FF"/>
<stop offset="1" stop-color="#5533FF"/>
</linearGradient>
<linearGradient id="paint1_linear_9879_80647" x1="11.7573" y1="0.0884966" x2="10.5632" y2="4.89527" gradientUnits="userSpaceOnUse">
<stop stop-color="#A5FECA"/>
<stop offset="0.283155" stop-color="#3EDCEB"/>
<stop offset="0.623976" stop-color="#2594FF"/>
<stop offset="1" stop-color="#5533FF"/>
</linearGradient>
</defs>
</svg>
