<svg width="18" height="17" viewBox="0 0 18 17" fill="none" xmlns="http://www.w3.org/2000/svg">
<path fill-rule="evenodd" clip-rule="evenodd" d="M4.1896 2.43152C4.1896 3.34502 3.45703 4.08431 2.3114 4.08431C1.21042 4.08431 0.47784 3.34502 0.500512 2.43152C0.47784 1.47361 1.2104 0.755859 2.33335 0.755859C3.45701 0.755859 4.16764 1.47361 4.1896 2.43152ZM0.592619 16.0305V5.38998H4.07553V16.0298H0.592619V16.0305Z" fill="#0077B5"/>
<path fill-rule="evenodd" clip-rule="evenodd" d="M6.8675 8.78552C6.8675 7.45831 6.82144 6.32685 6.77539 5.39114H9.80062L9.96144 6.84886H10.0302C10.4886 6.17415 11.6342 5.15234 13.4904 5.15234C15.7817 5.15234 17.5005 6.58853 17.5005 9.72055V16.0317H14.0175V10.1349C14.0175 8.76332 13.5138 7.82828 12.2534 7.82828C11.2906 7.82828 10.7181 8.45926 10.4893 9.06804C10.3972 9.28599 10.3518 9.59004 10.3518 9.89544V16.0317H6.8689V8.78552H6.8675Z" fill="#0077B5"/>
</svg>
