<svg width="48" height="48" viewBox="0 0 48 48" fill="none" xmlns="http://www.w3.org/2000/svg">
<path d="M0 24C0 10.7452 10.7452 0 24 0C37.2548 0 48 10.7452 48 24C48 37.2548 37.2548 48 24 48C10.7452 48 0 37.2548 0 24Z" fill="url(#paint0_linear_8376_147986)"/>
<path d="M24.0044 10C18.49 10 14 14.49 14 20.0044C14 21.8664 14.5167 23.6837 15.4967 25.2606L23.4343 38.0534C23.5857 38.3029 23.853 38.4454 24.1381 38.4454C24.1381 38.4454 24.1381 38.4454 24.147 38.4454C24.441 38.4454 24.7082 38.294 24.8597 38.0445L32.5924 25.1269C33.5189 23.5857 34 21.8129 34 20.0044C34.0089 14.49 29.5278 10 24.0044 10ZM31.167 24.2717L24.1292 36.0133L16.9131 24.3786C16.1024 23.069 15.657 21.5546 15.657 19.9955C15.657 15.3987 19.4076 11.6481 24.0044 11.6481C28.6013 11.6481 32.343 15.3987 32.343 19.9955C32.3519 21.51 31.9332 22.9889 31.167 24.2717Z" fill="white"/>
<path d="M24.0056 15.0063C21.2439 15.0063 19.0078 17.2513 19.0078 20.0041C19.0078 22.748 21.2172 25.0019 24.0056 25.0019C26.8296 25.0019 29.0034 22.7124 29.0034 20.0041C29.0123 17.2513 26.7673 15.0063 24.0056 15.0063ZM24.0056 23.3538C22.1615 23.3538 20.6648 21.8482 20.6648 20.013C20.6648 18.1778 22.1704 16.6723 24.0056 16.6723C25.8408 16.6723 27.3463 18.1778 27.3463 20.013C27.3463 21.8215 25.8853 23.3538 24.0056 23.3538Z" fill="white"/>
<defs>
<linearGradient id="paint0_linear_8376_147986" x1="46.0885" y1="1.6" x2="0.014692" y2="50.094" gradientUnits="userSpaceOnUse">
<stop stop-color="#A5FECA"/>
<stop offset="0.283155" stop-color="#3EDCEB"/>
<stop offset="0.623976" stop-color="#2594FF"/>
<stop offset="1" stop-color="#5533FF"/>
</linearGradient>
</defs>
</svg>
