<svg width="48" height="48" viewBox="0 0 48 48" fill="none" xmlns="http://www.w3.org/2000/svg">
<path d="M0 24C0 10.7452 10.7452 0 24 0C37.2548 0 48 10.7452 48 24C48 37.2548 37.2548 48 24 48C10.7452 48 0 37.2548 0 24Z" fill="url(#paint0_linear_8376_147987)"/>
<path d="M38.2461 30.5775L34.6114 26.9427C33.6046 25.9358 31.9735 25.9358 30.9767 26.9427L29.3255 28.594C28.5704 29.3491 27.332 29.3491 26.5668 28.594L19.4081 21.425C18.6429 20.6597 18.6429 19.4313 19.4081 18.6661C19.6699 18.4043 20.4351 17.6391 21.0593 17.0148C22.0561 16.018 22.0662 14.3868 21.0593 13.3799L17.4246 9.75516C16.4178 8.74828 14.7867 8.74828 13.79 9.75516C13.0449 10.5003 12.8032 10.7318 12.4609 11.0641C8.84636 14.6788 8.84636 20.559 12.4609 24.1738L23.808 35.5314C27.4326 39.1562 33.2925 39.1562 36.9171 35.5314L38.2361 34.2124C39.253 33.2055 39.253 31.5744 38.2461 30.5775ZM33.4032 28.1509L37.0379 31.7858C37.3702 32.1181 37.3702 32.6618 37.0379 32.9941L36.4338 33.5982L31.5909 28.7551L32.195 28.1509C32.5172 27.8187 33.0609 27.8187 33.4032 28.1509ZM16.2164 10.9735L19.8511 14.5983C20.1834 14.9305 20.1834 15.4743 19.8511 15.8065L19.247 16.4107L14.4041 11.5676L15.0082 10.9735C15.3304 10.6312 15.8741 10.6312 16.2164 10.9735ZM25.0263 34.3231L13.6792 22.9655C10.8802 20.1663 10.7292 15.7763 13.206 12.796L18.0388 17.629C16.7702 19.0688 16.8205 21.2638 18.1999 22.6332L25.3586 29.8022C26.7279 31.1716 28.9228 31.232 30.3626 29.9633L35.1954 34.7964C32.2252 37.2733 27.8455 37.1424 25.0263 34.3231Z" fill="white"/>
<defs>
<linearGradient id="paint0_linear_8376_147987" x1="46.0885" y1="1.6" x2="0.014692" y2="50.094" gradientUnits="userSpaceOnUse">
<stop stop-color="#A5FECA"/>
<stop offset="0.283155" stop-color="#3EDCEB"/>
<stop offset="0.623976" stop-color="#2594FF"/>
<stop offset="1" stop-color="#5533FF"/>
</linearGradient>
</defs>
</svg>
