<svg width="18" height="15" viewBox="0 0 18 15" fill="none" xmlns="http://www.w3.org/2000/svg">
<path d="M5.84616 14.3017C12.2613 14.3017 15.7701 8.98679 15.7701 4.37775C15.7701 4.22679 15.7701 4.07651 15.7599 3.92691C16.4425 3.43317 17.0317 2.82182 17.5 2.12151C16.8635 2.40371 16.1882 2.58869 15.4967 2.67027C16.2249 2.23442 16.7698 1.54882 17.0301 0.741105C16.3455 1.14741 15.5964 1.43373 14.8154 1.58771C14.2895 1.02853 13.594 0.65826 12.8365 0.53419C12.079 0.410121 11.3017 0.53917 10.6249 0.901368C9.94811 1.26357 9.40957 1.83872 9.09261 2.53783C8.77564 3.23693 8.69793 4.02102 8.87148 4.76875C7.4848 4.69919 6.12824 4.33881 4.88986 3.71101C3.65148 3.08321 2.55896 2.20202 1.6832 1.12463C1.23718 1.89246 1.10058 2.80141 1.3012 3.66642C1.50181 4.53144 2.02458 5.28747 2.76304 5.78059C2.20796 5.76432 1.66496 5.61458 1.18 5.34403V5.38823C1.18022 6.19349 1.45898 6.9739 1.96899 7.59707C2.47901 8.22024 3.18888 8.64781 3.9782 8.80727C3.46472 8.94733 2.92595 8.9678 2.40332 8.86711C2.62629 9.56009 3.06022 10.1661 3.64446 10.6004C4.2287 11.0346 4.93404 11.2755 5.66188 11.2893C4.93873 11.8577 4.1106 12.278 3.22487 12.526C2.33914 12.7741 1.41319 12.8451 0.5 12.7349C2.09505 13.7585 3.95095 14.3014 5.84616 14.2989" fill="#1DA1F2"/>
</svg>
